<?xml version="1.0" encoding="utf-8"?>
<svg version="1.1" xmlns:xlink="http://www.w3.org/1999/xlink" width="22px" height="17px" xmlns="http://www.w3.org/2000/svg">
  <g transform="matrix(1 0 0 1 -932 -823 )">
    <path d="M 4.72468244038902 3.01612902636714  C 4.72468244038902 1.37096772265625  6.037585660319 0  7.73341899365232 0  C 9.37454802270508 0  10.7421555469157 1.31612902636721  10.7421555469157 3.01612902636714  C 10.7421555469157 4.71612902636718  9.37454802270508 5.97741935644535  7.73341899365232 5.97741935644535  C 6.09228996459961 5.97741935644535  4.72468244038902 4.66129033007815  4.72468244038902 3.01612902636714  Z M 21.6283114694417 15.7387096699218  C 21.9018329742839 16.1774193398437  21.6283114694417 16.6709677392578  21.1359727474772 16.6709677392578  L 0.67656415547691 16.6709677392578  C 0.184225450073257 16.6709677392578  -0.0892960547688517 16.1774193564453  0.129521145792637 15.7387096699218  L 2.53651038509116 9.92580645214844  C 3.46648350817873 8.28064516503912  5.81876844319663 8.28064516503912  6.7487415662842 9.92580645214844  L 7.89753188993325 11.9  C 8.3898705953369 12.7774193564453  9.64806952754719 12.7225806435547  10.0309996409505 11.7903225742187  L 13.6961878124593 4.11290321777346  C 14.3526394307048 2.74193547851564  16.3219942688802 2.74193547851564  16.9784458705648 4.11290321777346  L 21.6283114694417 15.7387096699218  Z " fill-rule="nonzero" fill="#999999" stroke="none" transform="matrix(1 0 0 1 932 823 )" />
  </g>
</svg>