<?xml version="1.0" encoding="utf-8"?>
<svg version="1.1" xmlns:xlink="http://www.w3.org/1999/xlink" width="19px" height="21px" xmlns="http://www.w3.org/2000/svg">
  <g transform="matrix(1 0 0 1 -54 -63 )">
    <path d="M 17.9518333333333 0  C 18.5302777777778 0  19 0.466199999999997  19 1.04159999999999  L 19 19.9583999999999  C 18.9953994721557 20.5321623592755  18.5286358148049 20.9960017857311  17.9518333333333 21  L 1.04816666666667 21  C 0.469692171046821 21.0000002917856  0.000582552362078825 20.5338296012255  0 19.9583999999999  L 0 1.04159999999999  C 0.00460052784432784 0.467837640724352  0.471364185195093 0.00399821426874427  1.04816666666667 0  L 17.9518333333333 0  Z M 16.8888888888889 18.8999999999999  L 16.8888888888889 2  L 2.11111111111111 2  L 2.11111111111111 18.8999999999999  L 16.8888888888889 18.8999999999999  Z M 6.14122222222222 9.07829999999994  L 8.75372222222222 11.6770499999999  L 13.2324444444444 7.22294999999995  L 14.725 8.70764999999994  L 8.75372222222222 14.6474999999999  L 4.64761111111111 10.5629999999999  L 6.14122222222222 9.07829999999994  Z " fill-rule="nonzero" fill="#585de0" stroke="none" transform="matrix(1 0 0 1 54 63 )" />
  </g>
</svg>