<?xml version="1.0" encoding="utf-8"?>
<svg version="1.1" xmlns:xlink="http://www.w3.org/1999/xlink" width="11px" height="15px" xmlns="http://www.w3.org/2000/svg">
  <g transform="matrix(1 0 0 1 -54 -114 )">
    <path d="M 1.375 15  L 0 15  C 0 11.844087143824  2.46243387593064 9.28571428571429  5.5 9.28571428571429  C 8.53756612406936 9.28571428571429  11 11.844087143824  11 15  L 9.625 15  C 9.625 12.633065357868  7.77817459305202 10.7142857142857  5.5 10.7142857142857  C 3.22182540694798 10.7142857142857  1.375 12.633065357868  1.375 15  Z M 9.625 4.28571428571429  C 9.625 6.65357142857143  7.7790625 8.57142857142857  5.5 8.57142857142857  C 3.2209375 8.57142857142857  1.375 6.65357142857143  1.375 4.28571428571429  C 1.375 1.91785714285714  3.2209375 0  5.5 0  C 7.7790625 0  9.625 1.91785714285714  9.625 4.28571428571429  Z M 2.75 4.28571428571429  C 2.75 5.86428571428571  3.980625 7.14285714285714  5.5 7.14285714285714  C 7.019375 7.14285714285714  8.25 5.86428571428571  8.25 4.28571428571429  C 8.25 2.70714285714286  7.019375 1.42857142857143  5.5 1.42857142857143  C 3.980625 1.42857142857143  2.75 2.70714285714286  2.75 4.28571428571429  Z " fill-rule="nonzero" fill="#b0b0b0" stroke="none" transform="matrix(1 0 0 1 54 114 )" />
  </g>
</svg>