<?xml version="1.0" encoding="utf-8"?>
<svg version="1.1" xmlns:xlink="http://www.w3.org/1999/xlink" width="12px" height="12px" xmlns="http://www.w3.org/2000/svg">
  <g transform="matrix(1 0 0 1 -54 -137 )">
    <path d="M 12 6  C 12 9.3138  9.3138 12  6 12  C 2.6862 12  0 9.3138  0 6  C 0 2.6862  2.6862 0  6 0  C 9.3138 0  12 2.6862  12 6  Z M 6 10.8  C 8.65096679918781 10.8  10.8 8.65096679918781  10.8 6  C 10.8 3.34903320081219  8.65096679918781 1.2  6 1.2  C 3.34903320081219 1.2  1.2 3.34903320081219  1.2 6  C 1.2 8.65096679918781  3.34903320081219 10.8  6 10.8  Z M 6.6 3  L 6.6 6  L 9 6  L 9 7.2  L 5.4 7.2  L 5.4 3  L 6.6 3  Z " fill-rule="nonzero" fill="#b0b0b0" stroke="none" transform="matrix(1 0 0 1 54 137 )" />
  </g>
</svg>