<?xml version="1.0" encoding="utf-8"?>
<svg version="1.1" xmlns:xlink="http://www.w3.org/1999/xlink" width="12px" height="13px" xmlns="http://www.w3.org/2000/svg">
  <g transform="matrix(1 0 0 1 -54 -159 )">
    <path d="M 0.631578947368421 3.89999999999997  L 4.42105263157895 0.00195000000000006  L 4.42105263157895 0  L 11.3671578947368 0  C 11.7157894736842 0  12 0.295749999999998  12 0.644799999999996  L 12 12.3551999999999  C 11.9996514368138 12.7114183245682  11.7189653491797 13.0000001806292  11.3728421052632 13  L 1.25873684210526 13  C 0.91165308249369 12.9975083027481  0.631563365750161 12.707231539381  0.631563365750161 12.3500158131375  C 0.631563365750161 12.3484938613445  0.631568559654949 12.346971914245  0.631578947368421 12.3454499999999  L 0.631578947368421 3.89999999999997  Z M 4.42105263157895 1.83949999999999  L 2.41894736842105 3.89999999999997  L 4.42105263157895 3.89999999999997  L 4.42105263157895 1.83949999999999  Z M 10.7368421052632 1.29999999999999  L 5.68421052631579 1.29999999999999  L 5.68421052631579 4.54999999999997  C 5.68421052631579 4.90898508738998  5.40144299989313 5.19999999999997  5.05263157894737 5.19999999999997  L 1.89473684210526 5.19999999999997  L 1.89473684210526 11.6999999999999  L 10.7368421052632 11.6999999999999  L 10.7368421052632 1.29999999999999  Z " fill-rule="nonzero" fill="#b0b0b0" stroke="none" transform="matrix(1 0 0 1 54 159 )" />
  </g>
</svg>