<?xml version="1.0" encoding="utf-8"?>
<svg version="1.1" xmlns:xlink="http://www.w3.org/1999/xlink" width="10px" height="16px" xmlns="http://www.w3.org/2000/svg">
  <g transform="matrix(1 0 0 1 -251 -341 )">
    <path d="M 8.74354467975206 5.20829593879131  C 9.03732297585228 4.96746114733986  9.49163084323348 4.98772430268593  9.75811160253099 5.25389225529443  C 10.0243085291839 5.52006024018596  10.0020030184659 5.931410737345  9.70792419938016 6.17283902053202  C 9.03496887913224 6.72545507812504  8.64874625516529 7.51653200865184  8.64874625516529 8.3427769563533  C 8.64874625516529 9.16783492058369  9.03585377388947 9.95950532670457  9.71144702350207 10.513918791968  C 9.86816995415805 10.6423821022727  9.94740796100206 10.8188326284866  9.94740796100206 10.9961818666064  C 9.94740796100206 11.1517757618802  9.88606781056302 11.3085566244835  9.76103338068182 11.4331538287706  C 9.49455262138429 11.6990504745609  9.04024475400311 11.719313629907  8.7464664579029 11.4778683981147  C 7.77151854661673 10.6769735924586  7.21214435369319 9.53447084839877  7.21214435369319 8.3427769563533  C 7.21216101175102 7.14960784155477  7.7703665095558 6.00712204610022  8.74354467975206 5.20829593879131  Z M 6.02061922133265 3.06457295971074  C 6.30030630165288 2.80973198605375  6.75491469201964 2.8082397985537  7.03607100658576 3.06189380488121  C 7.31751116993803 3.31466604790808  7.31839603241218 3.72747483535642  7.03900945893594 3.98202753744835  C 5.76146789449896 5.14599736893075  5.05742508716426 6.69445841942149  5.05742508716426 8.34276002388947  C 5.05742508716426 9.98809421810432  5.76236946345557 11.5362670131715  7.04253228305785 12.7023225077479  C 7.18164120609504 12.8290053751291  7.25149619059917 12.9950275858729  7.25149619059917 13.1607445603047  C 7.25149619059917 13.3276654829546  7.18105685046487 13.4951968298037  7.03989433755166 13.6218627485795  C 6.7584541903409 13.8755167387655  6.30412961647727 13.8743297875775  6.0241587035124 13.6194718653151  C 4.47425947507747 12.2084102530991  3.62082316955062 10.3341617704029  3.62082316955062 8.34276002388947  C 3.62080646306819 6.34810259555786  4.47337459646178 4.4735488926911  6.02061922133265 3.06457295971074  Z M 3.32116796874999 0.91074380165287  C 3.59557920648243 0.651714569343994  4.05017089036673 0.643066680655977  4.33660306366218 0.891972817665305  C 4.62333575994319 1.1408620060692  4.63245163997934 1.5527890463585  4.35773987926137 1.81181827866737  C 2.4929589198089 3.57281353305785  1.46635437112604 5.89207141012395  1.46635437112604 8.34248868478824  C 1.46635437112604 10.7881411576705  2.49471197055786 13.1065172875775  4.36126267110021 14.8711073411674  C 4.49449468943698 14.9968915127841  4.56112742122934 15.1590306527634  4.56112742122934 15.3211867413481  C 4.56112742122934 15.4919737700155  4.48716528925621 15.6630660027118  4.33984203899794 15.7909358374225  C 4.0536936983471 16.0395197572314  3.59880147533573 16.0305836292613  3.32410643724174 15.7712661092459  C 1.19985690534608 13.7634504455062  0.0300529603564144 11.1255438888172  0.0300529603564144 8.34277697249485  C 0.0294685885847059 5.55463479790802  1.19868821022726 2.91554124160638  3.32116796874999 0.91074380165287  Z " fill-rule="nonzero" fill="#999999" stroke="none" transform="matrix(1 0 0 1 251 341 )" />
  </g>
</svg>