<?xml version="1.0" encoding="utf-8"?>
<svg version="1.1" xmlns:xlink="http://www.w3.org/1999/xlink" width="32px" height="23px" xmlns="http://www.w3.org/2000/svg">
  <g transform="matrix(1 0 0 1 -849 -117 )">
    <path d="M 13.0325800421779 13.4036565061476  C 13.9950932227761 13.3999743852459  15.1698140337423 13.5067558913935  16.412744440184 13.7166367827869  C 13.2826818922546 14.5451139856557  9.86083385256899 17.1520555840164  9.86083385256899 19.6927190061476  L 9.86083385256899 22.9440317622951  L 1.02390181652606 22.9440317622951  C 0.482014474693301 22.9440317622951  0.0424415260736168 22.5169057377049  0.0424415260736168 21.9903624487705  L 0.0424415260736168 19.7626793032787  C 0.0424415260736168 15.5356045081967  8.69748130751532 13.4036565061476  13.0325800421779 13.4036565061476  Z M 15.7533850172546 5.76693775614755  C 15.7533850172546 8.92987961065575  13.1159473255368 11.4926357581967  9.86083385256899 11.4926357581967  C 6.60572037960122 11.4926357581967  3.96828268788346 8.92987961065575  3.96828268788346 5.76693775614755  C 3.96828268788346 2.60399590163936  6.60572037960122 0.0412397540983562  9.86083385256899 0.0412397540983562  C 13.1159473255368 0.0412397540983562  15.7533850172546 2.60399590163936  15.7533850172546 5.76693775614755  Z M 17.8186199913727 8.72736296106558  C 17.8716718989647 11.3600794057377  20.1150097057132 13.4662525614754  22.8547617906441 13.3999743852459  C 25.3898850891488 13.337378329918  27.5157508148006 11.3122118340164  27.6332228958972 8.85255507172133  C 27.7582738209356 6.16460681352458  25.5831456096626 3.91483094262293  22.8282358368482 3.86328125  L 22.6311858943635 3.86328125  C 19.9217491851994 3.91483094262293  17.7655680837806 6.09464651639345  17.8186199913727 8.72736296106558  Z M 31.4643285084356 20.3996862192623  C 31.4643285084356 17.0121349897541  25.5755667657209 15.3109951331967  22.6273964723927 15.3109951331967  C 19.6792261790644 15.3109951331967  13.7904644363497 17.0158171106557  13.7904644363497 20.3996862192623  L 13.7904644363497 21.9903624487705  C 13.7904644363497 22.5169057377049  14.2300373849694 22.9440317622951  14.7719247268021 23  L 30.4828682179831 23  C 31.024755559816 22.9440317622951  31.4643285084356 22.5169057377049  31.4643285084356 21.9903624487705  L 31.4643285084356 20.3996862192623  Z " fill-rule="nonzero" fill="#999999" stroke="none" transform="matrix(1 0 0 1 849 117 )" />
  </g>
</svg>