<?xml version="1.0" encoding="utf-8"?>
<svg version="1.1" xmlns:xlink="http://www.w3.org/1999/xlink" width="20px" height="20px" xmlns="http://www.w3.org/2000/svg">
  <g transform="matrix(1 0 0 1 -80 -65 )">
    <path d="M 2 15.385  L 3.763 14  L 18 14  L 18 2  L 2 2  L 2 15.385  Z M 19 16  L 4.455 16  L 0 19.5  L 0 1  C 0 0.447715250169207  0.447715250169207 0  1 0  L 19 0  C 19.5522847498308 0  20 0.447715250169207  20 1  L 20 15  C 20 15.5522847498308  19.5522847498308 16  19 16  Z M 9 13  L 9 11  L 11 11  L 11 13  L 9 13  Z M 8.529 6.206  L 6.567 5.813  C 6.89404844814616 4.17626392248441  8.33104213572818 2.9980000025418  10.0001334079107 2.9980000025418  C 11.9336823170683 2.9980000025418  13.5011334079107 4.56545109338419  13.5011334079107 6.4990000025418  C 13.5011334079107 8.43254891169941  11.9336823170683 10.0000000025418  10.0001334079107 10.0000000025418  L 9 10  L 9 8  L 10 8  C 10.8283903526633 7.9999480006998  11.4999058427589 7.32839035725049  11.4999058427589 6.5000000029552  C 11.4999058427589 5.67157287820901  10.8283329675051 5.0000000029552  9.99990584275892 5.0000000029552  C 9.28481752756008 5.0000000029552  8.66915731118779 5.50478161272359  8.529 6.206  Z " fill-rule="nonzero" fill="#585de0" stroke="none" transform="matrix(1 0 0 1 80 65 )" />
  </g>
</svg>