<?xml version="1.0" encoding="utf-8"?>
<svg version="1.1" xmlns:xlink="http://www.w3.org/1999/xlink" width="11px" height="11px" xmlns="http://www.w3.org/2000/svg">
  <g transform="matrix(1 0 0 1 -79 -135 )">
    <path d="M 5.5 7.52631578947368  L 1.22222222222222 7.52631578947368  L 1.22222222222222 11  L 0 11  L 0 0  L 5.73344444444444 0  C 5.96485126746428 0.000117073676867898  6.17633894613525 0.124051393321921  6.27977777777778 0.320157894736842  L 6.72222222222222 1.15789473684211  L 10.3888888888889 1.15789473684211  C 10.7263962360077 1.15789473684211  11 1.41709830272954  11 1.73684210526316  L 11 8.10526315789474  C 11 8.42500696042835  10.7263962360077 8.68421052631579  10.3888888888889 8.68421052631579  L 6.48877777777778 8.68421052631579  C 6.25737095475794 8.68409345263892  6.04588327608697 8.56015913299387  5.94244444444444 8.36405263157895  L 5.5 7.52631578947368  Z M 5.35577777777778 1.15789473684211  L 1.22222222222222 1.15789473684211  L 1.22222222222222 6.36842105263158  L 6.25533333333333 6.36842105263158  L 6.86644444444444 7.52631578947368  L 9.77777777777778 7.52631578947368  L 9.77777777777778 2.31578947368421  L 5.96688888888889 2.31578947368421  L 5.35577777777778 1.15789473684211  Z " fill-rule="nonzero" fill="#999999" stroke="none" transform="matrix(1 0 0 1 79 135 )" />
  </g>
</svg>