<?xml version="1.0" encoding="utf-8"?>
<svg version="1.1" xmlns:xlink="http://www.w3.org/1999/xlink" width="29px" height="31px" xmlns="http://www.w3.org/2000/svg">
  <g transform="matrix(1 0 0 1 -66 -459 )">
    <path d="M 2 9.29999999999994  L 10.6842105263158 0.00465000000000015  L 10.6842105263158 0  L 27.4706315789474 0  C 28.3131578947368 0  29 0.705249999999995  29 1.53759999999999  L 29 29.4623999999998  C 28.9991576389667 30.3118436970472  28.3208329271844 31.0000004307311  27.4843684210526 31  L 3.04194736842105 31  C 2.20316161602642 30.9940582603993  1.52627813389622 30.3018598246777  1.52627813389622 29.450037708251  C 1.52627813389622 29.4464084385908  1.52629068583279 29.4427791801227  2 29.4391499999998  L 2 9.29999999999994  Z M 10.6842105263158 4.38649999999997  L 5.84578947368421 9.29999999999994  L 10.6842105263158 9.29999999999994  L 10.6842105263158 4.38649999999997  Z M 26 3  L 13.7368421052632 3  L 13.7368421052632 10.8499999999999  C 13.7368421052632 11.7060413622377  13.0534872497417 12.3999999999999  12.2105263157895 12.3999999999999  L 5 12.3999999999999  L 5 27.8999999999998  L 26 27.8999999999998  L 26 3  Z " fill-rule="nonzero" fill="#b0b0b0" stroke="none" transform="matrix(1 0 0 1 66 459 )" />
  </g>
</svg>