<?xml version="1.0" encoding="utf-8"?>
<svg version="1.1" xmlns:xlink="http://www.w3.org/1999/xlink" width="16px" height="16px" xmlns="http://www.w3.org/2000/svg">
  <g transform="matrix(1 0 0 1 -312 -29 )">
    <path d="M 320 29  C 324.48 29  328 32.52  328 37  C 328 41.48  324.48 45  320 45  C 315.52 45  312 41.48  312 37  C 312 32.52  315.52 29  320 29  Z " fill-rule="nonzero" fill="#ffffff" stroke="none" />
    <path d="M 320 29.5  C 324.2 29.5  327.5 32.8  327.5 37  C 327.5 41.2  324.2 44.5  320 44.5  C 315.8 44.5  312.5 41.2  312.5 37  C 312.5 32.8  315.8 29.5  320 29.5  Z " stroke-width="1" stroke="#cccccc" fill="none" />
  </g>
</svg>