<?xml version="1.0" encoding="utf-8"?>
<svg version="1.1" xmlns:xlink="http://www.w3.org/1999/xlink" width="16px" height="16px" xmlns="http://www.w3.org/2000/svg">
  <g transform="matrix(1 0 0 1 -312 -29 )">
    <path d="M 320 33  C 322.24 33  324 34.76  324 37  C 324 39.24  322.24 41  320 41  C 317.76 41  316 39.24  316 37  C 316 34.76  317.76 33  320 33  Z " fill-rule="nonzero" fill="#ffffff" stroke="none" />
    <path d="M 320 31.5  C 323.08 31.5  325.5 33.92  325.5 37  C 325.5 40.08  323.08 42.5  320 42.5  C 316.92 42.5  314.5 40.08  314.5 37  C 314.5 33.92  316.92 31.5  320 31.5  Z " stroke-width="5" stroke="#585de0" fill="none" />
  </g>
</svg>