<?xml version="1.0" encoding="utf-8"?>
<svg version="1.1" xmlns:xlink="http://www.w3.org/1999/xlink" width="17px" height="15px" xmlns="http://www.w3.org/2000/svg">
  <g transform="matrix(1 0 0 1 -223 -403 )">
    <path d="M 13.5902226170568 9.375  C 13.7273986204013 9.43359375  13.7959866220736 9.52799479166669  13.7959866220736 9.658203125  L 13.7959866220736 12.1875  C 13.7959866220736 12.9622395833333  13.5200015677257 13.6246744791667  12.9680314590301 14.1748046875  C 12.4160613503344 14.7249348958333  11.7514109531772 15  10.9740802675585 15  L 2.82190635451505 15  C 2.04457566889633 15  1.37992527173913 14.7249348958333  0.82795516304347 14.1748046875  C 0.275985054347814 13.6246744791667  0 12.9622395833333  0 12.1875  L 0 4.0625  C 0 3.28776041666669  0.275985054347814 2.62532552083331  0.82795516304347 2.0751953125  C 1.37992527173913 1.52506510416669  2.04457566889633 1.25  2.82190635451505 1.25  L 5.32046927257525 1.25  C 5.40538775083613 1.25  5.47887489548495 1.28092447916669  5.54093070652172 1.3427734375  C 5.60298651755852 1.40462239583331  5.63401442307691 1.47786458333331  5.63401442307691 1.5625  C 5.63401442307691 1.73828125  5.54909594481606 1.84244791666669  5.37925898829431 1.875  C 4.87628030936455 2.04427083333331  4.44188963210701 2.23958333333331  4.07608695652175 2.4609375  C 4.01076505016721 2.48697916666669  3.9585075250836 2.5  3.91931438127091 2.5  L 2.82190635451505 2.5  C 2.39078177257525 2.5  2.02171300167223 2.65299479166669  1.71470004180603 2.958984375  C 1.4076870819398 3.26497395833331  1.2541806020067 3.6328125  1.2541806020067 4.0625  L 1.2541806020067 12.1875  C 1.2541806020067 12.6171875  1.4076870819398 12.9850260416667  1.71470004180603 13.291015625  C 2.02171300167223 13.5970052083333  2.39078177257525 13.75  2.82190635451505 13.75  L 10.9740802675585 13.75  C 11.4052048494983 13.75  11.7742736204013 13.5970052083333  12.0812865802675 13.291015625  C 12.3882995401338 12.9850260416667  12.5418060200669 12.6171875  12.5418060200669 12.1875  L 12.5418060200669 10.09765625  C 12.5418060200669 9.97395833333331  12.6005957357859 9.87955729166669  12.7181751672241 9.814453125  C 12.9010765050167 9.72981770833331  13.0774456521739 9.609375  13.2472826086956 9.453125  C 13.3517976588629 9.34895833333331  13.4661109949833 9.32291666666669  13.5902226170568 9.375  Z M 16.3043478260869 4.375  C 16.3043478260869 4.54427083333331  16.2422920150501 4.69075520833331  16.1181803929766 4.814453125  L 12.3556385869565 8.564453125  C 12.2380591555184 8.68815104166669  12.0910848662207 8.75  11.9147157190635 8.75  C 11.8363294314381 8.75  11.754677048495 8.73372395833331  11.6697585702341 8.701171875  C 11.4150031354515 8.59049479166669  11.2876254180602 8.3984375  11.2876254180602 8.125  L 11.2876254180602 6.25  L 9.71989966555182 6.25  C 7.61000209030101 6.25  6.17945234113711 6.67643229166669  5.4282504180602 7.529296875  C 4.65091973244148 8.42122395833331  4.40922867892976 9.9609375  4.70317725752508 12.1484375  C 4.72277382943145 12.2981770833333  4.65745192307691 12.4088541666667  4.50721153846155 12.48046875  C 4.45495401337791 12.4934895833333  4.41576086956522 12.5  4.3896321070234 12.5  C 4.28511705685619 12.5  4.20019857859532 12.4576822916667  4.13487667224081 12.373046875  C 4.06955476588629 12.2819010416667  4.00096676421404 12.1809895833333  3.92911266722408 12.0703125  C 3.85725857023411 11.9596354166667  3.72824780518394 11.7366536458333  3.54208037207357 11.4013671875  C 3.3559129389632 11.0660807291667  3.19424122073579 10.7421875  3.05706521739131 10.4296875  C 2.91988921404683 10.1171875  2.79414454431438 9.74609375  2.67983120819397 9.31640625  C 2.56551787207357 8.88671875  2.50836120401337 8.48958333333331  2.50836120401337 8.125  C 2.50836120401337 7.80598958333331  2.51979253762542 7.509765625  2.5426552048495 7.236328125  C 2.56551787207357 6.962890625  2.61124320652175 6.669921875  2.67983120819397 6.357421875  C 2.74841920986623 6.044921875  2.83986987876253 5.75846354166669  2.95418321488293 5.498046875  C 3.06849655100334 5.23763020833331  3.22200303093646 4.97233072916669  3.41470265468226 4.7021484375  C 3.60740227842808 4.43196614583331  3.83112980769229 4.19108072916669  4.08588524247492 3.9794921875  C 4.34064067725751 3.76790364583331  4.6492866847826 3.56770833333331  5.01182326505017 3.37890625  C 5.37435984531771 3.19010416666669  5.78098871237458 3.0322265625  6.23170986622074 2.9052734375  C 6.68243102006687 2.7783203125  7.20337322324414 2.67903645833331  7.79453647575249 2.607421875  C 8.38569972826087 2.53580729166669  9.02748745819397 2.5  9.71989966555182 2.5  L 11.2876254180602 2.5  L 11.2876254180602 0.625  C 11.2876254180602 0.3515625  11.4150031354515 0.159505208333314  11.6697585702341 0.048828125  C 11.754677048495 0.0162760416666856  11.8363294314381 0  11.9147157190635 0  C 12.0845526755853 0  12.2315269648829 0.0618489583333144  12.3556385869565 0.185546875  L 16.1181803929766 3.935546875  C 16.2422920150501 4.05924479166669  16.3043478260869 4.20572916666669  16.3043478260869 4.375  Z " fill-rule="nonzero" fill="#999999" stroke="none" transform="matrix(1 0 0 1 223 403 )" />
  </g>
</svg>