<?xml version="1.0" encoding="utf-8"?>
<svg version="1.1" xmlns:xlink="http://www.w3.org/1999/xlink" width="16px" height="15px" xmlns="http://www.w3.org/2000/svg">
  <g>
    <path d="M 8.40181107954545 14.7556785300926  C 8.29537769255023 14.8644362070397  8.15076491906163 14.92548735992  8 14.9253110532408  C 7.84926065211303 14.9255352614512  7.70465149104432 14.8645507185167  7.59818892045455 14.755859375  L 1.50692471590909 8.55161313657402  C 0.592894186413389 7.62035367529222  0.0794221365887893 6.35747630663752  0.0794221365887893 5.04069038676619  C 0.0794221365887893 2.298043679888  2.26235196074475 0.0746892293587962  4.95513236386151 0.0746892293587962  C 6.06184360634968 0.0746892293587962  7.13562863266353 0.458172391596463  8 1.162109375  C 8.86437136733647 0.458172391596463  9.93815639365033 0.0746892293587962  11.0448676361385 0.0746892293587962  C 13.7376480392552 0.0746892293587962  15.9205778634112 2.298043679888  15.9205778634112 5.04069038676619  C 15.9205778634112 6.35747630663752  15.4071058135866 7.62035367529222  14.4930752840909 8.55161313657402  L 8.40181107954545 14.7556785300926  Z M 7.59836647727272 2.34754774305554  C 6.89868262310776 1.63097473096877  5.94660010322355 1.22930970082939  4.95436789772727 1.23209635416663  C 2.88929277192439 1.23209635313208  1.2152892672967 2.93709992266031  1.2152892672967 5.0403284133173  C 1.2152892672967 6.05040041574762  1.60926898581579 7.01909692429695  2.310546875 7.73328993055554  L 8 13.5281032986111  L 13.689453125 7.73328993055554  C 14.391948358755 7.01893298315292  14.7867009153726 6.04936808666821  14.7867009153726 5.03830310284184  C 14.7867009153726 2.93507461218485  13.112697410745 1.23007104265662  11.0477094380999 1.23007104265662  C 10.055070963802 1.23007104265662  9.10317256509457 1.6320986860328  8.40181107954545 2.34754774305554  C 8.17993209849608 2.57348732306639  7.82024545832211 2.57348732306639  7.59836647727272 2.34754774305554  Z " fill-rule="nonzero" fill="#999999" stroke="none" />
  </g>
</svg>