<?xml version="1.0" encoding="utf-8"?>
<svg version="1.1" xmlns:xlink="http://www.w3.org/1999/xlink" width="16px" height="15px" xmlns="http://www.w3.org/2000/svg">
  <g>
    <path d="M 10.4419117589614 0.0624999938964947  C 9.37205881778493 0.0624999938964947  8.40073528262872 0.48828123779299  7.59117647633275 1.30468749389649  C 6.77720588809746 0.479687493896506  5.82205882927389 0.0624999938964947  4.74117647633273 0.0624999938964947  C 2.15882352366725 0.0624999938964947  0.0588235236672858 2.45156250000002  0.0588235236672858 5.38828124999998  C 0.0588235236672858 7.10859375000001  0.780882352941148 8.30468750610351  1.31029411764706 9.18203124389646  C 2.54926470013788 11.25234375  5.11397059397979 13.4015625  6.53308822954966 14.4984375  L 6.59926470013789 14.5492187438965  C 6.88022147346823 14.7821285281153  7.22673582744625 14.9078791849762  7.58308822954962 14.90625  C 7.92352941176472 14.90625  8.25588234719669 14.7890625  8.544852935432 14.5671875061035  L 8.56323529411765 14.55234375  C 8.58588843717388 14.5344314689413  8.60868336555029 14.5167225078018  8.63161764705882 14.4992187561035  C 10.05 13.400781262207  12.6154411764705 11.249218762207  13.8669117704504 9.17812500000002  C 14.3933823529412 8.30468750610351  15.1154411822151 7.10781249389646  15.1154411822151 5.38906250610353  C 15.1154411822151 2.45078124389647  13.0191176470588 0.0624999938964947  10.4411764763327 0.0624999938964947  Z " fill-rule="nonzero" fill="#534aff" stroke="none" />
  </g>
</svg>