<?xml version="1.0" encoding="utf-8"?>
<svg version="1.1" xmlns:xlink="http://www.w3.org/1999/xlink" width="21px" height="20px" xmlns="http://www.w3.org/2000/svg">
  <g transform="matrix(1 0 0 1 -265 -759 )">
    <path d="M 20.9698125 15.1569010416667  C 20.9698125 17.7350260416667  18.7779375 19.8346354166667  16.08403125 19.8346354166667  L 4.99668750000001 19.8346354166667  C 2.30278125000001 19.8346354166667  0.110906249999999 17.7350260416667  0.110906249999999 15.1536458333333  L 0.110906249999999 4.701171875  C 0.107625000000013 2.11979166666669  2.29949999999999 0.0234375  4.99668750000001 0.0234375  L 14.3285625 0.0234375  L 14.3285625 1.9765625  L 4.99668750000001 1.9765625  C 3.38887500000001 1.9765625  2.07965625 3.20052083333331  2 4.70442708333331  L 2 15.1569010416667  C 2.07965625 16.6608072916667  3.38887500000001 17.884765625  4.99668750000001 17.884765625  L 16.08403125 17.884765625  C 17.69184375 17.884765625  19.0010625 16.6608072916667  19.0010625 15.1569010416667  L 19.01090625 7.064453125  L 20.97965625 7.06770833333331  L 20.9698125 15.1569010416667  Z " fill-rule="nonzero" fill="#534aff" stroke="none" transform="matrix(1 0 0 1 265 759 )" />
  </g>
</svg>