<?xml version="1.0" encoding="utf-8"?>
<svg version="1.1" xmlns:xlink="http://www.w3.org/1999/xlink" width="13px" height="11px" xmlns="http://www.w3.org/2000/svg">
  <g transform="matrix(1 0 0 1 -45 -764 )">
    <path d="M 0.106954545454546 5.5  C 0.662409090909091 2.37111111111111  3.31381818181818 0  6.5 0  C 9.68618181818182 0  12.337 2.37111111111111  12.8930454545455 5.5  C 12.3375909090909 8.62888888888889  9.68618181818182 11  6.5 11  C 3.31381818181818 11  0.663000000000001 8.62888888888889  0.106954545454546 5.5  Z M 1.31359090909091 5.5  C 1.86619410665586 8.00231081479651  4.01810862727838 9.7772213462723  6.5 9.77777777777778  C 8.98189137272162 9.77722134627231  11.1338058933441 8.00231081479651  11.6864090909091 5.5  C 11.1317913053145 2.99976014946031  8.98038892308773 1.22743392849962  6.5 1.22743392849962  C 4.01961107691227 1.22743392849962  1.86820869468553 2.99976014946031  1.31359090909091 5.5  Z M 6.5 8.25  C 5.03142464249539 8.25  3.84090909090909 7.01878306203468  3.84090909090909 5.5  C 3.84090909090909 3.98121693796532  5.03142464249539 2.75  6.5 2.75  C 7.96857535750461 2.75  9.15909090909091 3.98121693796532  9.15909090909091 5.5  C 9.15909090909091 7.01878306203468  7.96857535750461 8.25  6.5 8.25  Z M 6.5 7.02777777777778  C 7.31587519861367 7.02777777777778  7.97727272727273 6.34376836779705  7.97727272727273 5.5  C 7.97727272727273 4.65623163220295  7.31587519861367 3.97222222222222  6.5 3.97222222222222  C 5.68412480138633 3.97222222222222  5.02272727272727 4.65623163220295  5.02272727272727 5.5  C 5.02272727272727 6.34376836779705  5.68412480138633 7.02777777777778  6.5 7.02777777777778  Z " fill-rule="nonzero" fill="#3c3c3c" stroke="none" fill-opacity="0.43921568627451" transform="matrix(1 0 0 1 45 764 )" />
  </g>
</svg>