<?xml version="1.0" encoding="utf-8"?>
<svg version="1.1" xmlns:xlink="http://www.w3.org/1999/xlink" width="12px" height="10px" xmlns="http://www.w3.org/2000/svg">
  <g transform="matrix(1 0 0 1 -91 -764 )">
    <path d="M 8.5546875 1.28580729166667  C 7.76227678571429 0.98415798611111  6.91071428571428 0.833333333333334  6 0.833333333333334  C 5.08928571428571 0.833333333333334  4.23772321428571 0.98415798611111  3.4453125 1.28580729166667  C 2.65290178571429 1.58745659722222  2.0234375 1.99435763888889  1.55691964285714 2.50651041666667  C 1.09040178571429 3.01866319444444  0.857142857142857 3.57204861111111  0.857142857142857 4.16666666666667  C 0.857142857142857 4.65277777777778  1.01674107142857 5.11610243055556  1.3359375 5.556640625  C 1.65513392857143 5.99717881944444  2.10491071428571 6.37803819444444  2.68526785714286 6.69921875  L 3.26785714285714 7.02473958333333  L 3.08705357142857 7.64973958333333  C 2.97991071428571 8.04470486111111  2.82366071428571 8.41796875  2.61830357142857 8.76953125  C 3.296875 8.49609375  3.91071428571429 8.125  4.45982142857143 7.65625  L 4.74776785714286 7.40885416666667  L 5.12946428571429 7.44791666666667  C 5.4375 7.48263888888889  5.72767857142857 7.5  6 7.5  C 6.91071428571428 7.5  7.76227678571429 7.34917534722222  8.5546875 7.04752604166667  C 9.34709821428572 6.74587673611111  9.9765625 6.33897569444444  10.4430803571429 5.82682291666667  C 10.9095982142857 5.31467013888889  11.1428571428571 4.76128472222222  11.1428571428571 4.16666666666667  C 11.1428571428571 3.57204861111111  10.9095982142857 3.01866319444444  10.4430803571429 2.50651041666667  C 9.9765625 1.99435763888889  9.34709821428572 1.58745659722222  8.5546875 1.28580729166667  Z M 11.1964285714286 2.07356770833333  C 11.7321428571429 2.71375868055555  12 3.41145833333333  12 4.16666666666667  C 12 4.921875  11.7321428571429 5.61957465277778  11.1964285714286 6.259765625  C 10.6607142857143 6.89995659722222  9.93303571428572 7.40559895833333  9.01339285714286 7.77669270833333  C 8.09375 8.14778645833333  7.08928571428571 8.33333333333333  6 8.33333333333333  C 5.6875 8.33333333333333  5.36383928571429 8.31597222222222  5.02901785714286 8.28125  C 4.14508928571429 9.04079861111111  3.11830357142857 9.56597222222222  1.94866071428571 9.85677083333333  C 1.72991071428571 9.91753472222222  1.47544642857143 9.96527777777778  1.18526785714286 10  L 1.15178571428571 10  C 1.08482142857143 10  1.02455357142857 9.97721354166667  0.970982142857143 9.931640625  C 0.917410714285714 9.88606770833333  0.881696428571429 9.82638888888889  0.863839285714286 9.75260416666667  L 0.863839285714286 9.74609375  C 0.850446428571429 9.72873263888889  0.849330357142857 9.70269097222222  0.860491071428571 9.66796875  C 0.871651785714286 9.63324652777778  0.876116071428572 9.61154513888889  0.873883928571429 9.60286458333333  C 0.871651785714286 9.59418402777778  0.881696428571429 9.57356770833333  0.904017857142857 9.541015625  L 0.944196428571429 9.482421875  C 0.944196428571429 9.482421875  0.959821428571429 9.46397569444444  0.991071428571429 9.42708333333333  C 1.02232142857143 9.39019097222222  1.04017857142857 9.37065972222222  1.04464285714286 9.36848958333333  C 1.07589285714286 9.33376736111111  1.14508928571429 9.25889756944444  1.25223214285714 9.14388020833333  C 1.359375 9.02886284722222  1.43638392857143 8.94639756944444  1.48325892857143 8.896484375  C 1.53013392857143 8.84657118055556  1.59933035714286 8.76085069444444  1.69084821428571 8.63932291666667  C 1.78236607142857 8.51779513888889  1.85491071428571 8.40711805555556  1.90848214285714 8.30729166666667  C 1.96205357142857 8.20746527777778  2.02232142857143 8.07942708333333  2.08928571428571 7.92317708333333  C 2.15625 7.76692708333333  2.21428571428571 7.60199652777778  2.26339285714286 7.42838541666667  C 1.5625 7.04210069444444  1.01004464285714 6.56467013888889  0.606026785714286 5.99609375  C 0.202008928571429 5.42751736111111  0 4.81770833333333  0 4.16666666666667  C 0 3.41145833333333  0.267857142857143 2.71375868055555  0.803571428571429 2.07356770833333  C 1.33928571428571 1.43337673611111  2.06696428571429 0.927734375  2.98660714285714 0.556640625  C 3.90625 0.185546875  4.91071428571429 0  6 0  C 7.08928571428571 0  8.09375 0.185546875  9.01339285714286 0.556640625  C 9.93303571428572 0.927734375  10.6607142857143 1.43337673611111  11.1964285714286 2.07356770833333  Z " fill-rule="nonzero" fill="#a1a1a1" stroke="none" transform="matrix(1 0 0 1 91 764 )" />
  </g>
</svg>