<?xml version="1.0" encoding="utf-8"?>
<svg version="1.1" xmlns:xlink="http://www.w3.org/1999/xlink" width="15px" height="15px" xmlns="http://www.w3.org/2000/svg">
  <g transform="matrix(1 0 0 1 -143 -1072 )">
    <path d="M 3.6735576923077 11.3151041666667  C 3.88990384615384 11.5321180555557  3.99807692307692 11.7939814814815  3.99807692307692 12.1006944444446  C 3.99807692307692 12.4074074074074  3.88990384615384 12.6692708333333  3.6735576923077 12.8862847222222  C 3.45721153846154 13.1032986111111  3.19615384615385 13.2118055555554  2.89038461538462 13.2118055555554  C 2.59038461538462 13.2118055555554  2.33076923076922 13.1018518518517  2.11153846153846 12.8819444444443  C 1.8923076923077 12.662037037037  1.78269230769232 12.4016203703704  1.78269230769232 12.1006944444446  C 1.78269230769232 11.7939814814815  1.89086538461538 11.5321180555557  2.10721153846154 11.3151041666667  C 2.32355769230769 11.0980902777778  2.58461538461539 10.9895833333335  2.89038461538462 10.9895833333335  C 3.19615384615385 10.9895833333335  3.45721153846154 11.0980902777778  3.6735576923077 11.3151041666667  Z M 7.98317307692308 13.1032986111111  C 8.19951923076923 13.3203125  8.30769230769231 13.5821759259261  8.30769230769231 13.8888888888889  C 8.30769230769231 14.195601851852  8.19951923076923 14.4574652777778  7.98317307692308 14.6744791666665  C 7.76682692307692 14.8914930555557  7.50576923076923 15  7.19999999999999 15  C 6.89423076923077 15  6.63317307692309 14.8914930555557  6.41682692307693 14.6744791666665  C 6.20048076923078 14.4574652777778  6.09230769230768 14.195601851852  6.09230769230768 13.8888888888889  C 6.09230769230768 13.5821759259261  6.20048076923078 13.3203125  6.41682692307693 13.1032986111111  C 6.63317307692309 12.8862847222222  6.89423076923077 12.7777777777778  7.19999999999999 12.7777777777778  C 7.50576923076923 12.7777777777778  7.76682692307692 12.8862847222222  7.98317307692308 13.1032986111111  Z M 1.89086538461538 6.9921875  C 2.10721153846154 7.20920138888891  2.21538461538462 7.47106481481478  2.21538461538462 7.77777777777783  C 2.21538461538462 8.08449074074065  2.10721153846154 8.34635416666652  1.89086538461538 8.56336805555566  C 1.67451923076922 8.78038194444434  1.41346153846155 8.88888888888891  1.1076923076923 8.88888888888891  C 0.801923076923075 8.88888888888891  0.540865384615387 8.78038194444434  0.324519230769226 8.56336805555566  C 0.10817307692308 8.34635416666652  0 8.08449074074065  0 7.77777777777783  C 0 7.47106481481478  0.10817307692308 7.20920138888891  0.324519230769226 6.9921875  C 0.540865384615387 6.77517361111109  0.801923076923075 6.66666666666674  1.1076923076923 6.66666666666674  C 1.41346153846155 6.66666666666674  1.67451923076922 6.77517361111109  1.89086538461538 6.9921875  Z M 12.2927884615385 11.3151041666667  C 12.5091346153846 11.5321180555557  12.6173076923077 11.7939814814815  12.6173076923077 12.1006944444446  C 12.6173076923077 12.4016203703704  12.5076923076923 12.662037037037  12.2884615384615 12.8819444444443  C 12.0692307692308 13.1018518518517  11.8096153846154 13.2118055555554  11.5096153846154 13.2118055555554  C 11.2038461538462 13.2118055555554  10.9427884615385 13.1032986111111  10.7264423076923 12.8862847222222  C 10.5100961538461 12.6692708333333  10.4019230769231 12.4074074074074  10.4019230769231 12.1006944444446  C 10.4019230769231 11.7939814814815  10.5100961538461 11.5321180555557  10.7264423076923 11.3151041666667  C 10.9427884615385 11.0980902777778  11.2038461538462 10.9895833333335  11.5096153846154 10.9895833333335  C 11.8153846153846 10.9895833333335  12.0764423076923 11.0980902777778  12.2927884615385 11.3151041666667  Z M 3.86826923076924 2.47395833333326  C 4.13942307692308 2.74594907407413  4.27500000000001 3.07291666666652  4.27500000000001 3.45486111111109  C 4.27500000000001 3.83680555555543  4.13942307692308 4.16377314814827  3.86826923076924 4.43576388888891  C 3.59711538461538 4.70775462962956  3.27115384615385 4.84375  2.89038461538462 4.84375  C 2.50961538461539 4.84375  2.18365384615385 4.70775462962956  1.91249999999999 4.43576388888891  C 1.64134615384616 4.16377314814827  1.50576923076923 3.83680555555543  1.50576923076923 3.45486111111109  C 1.50576923076923 3.07291666666652  1.64134615384616 2.74594907407413  1.91249999999999 2.47395833333326  C 2.18365384615385 2.20196759259261  2.50961538461539 2.06597222222217  2.89038461538462 2.06597222222217  C 3.27115384615385 2.06597222222217  3.59711538461538 2.20196759259261  3.86826923076924 2.47395833333326  Z M 14.0754807692308 6.9921875  C 14.2918269230769 7.20920138888891  14.4 7.47106481481478  14.4 7.77777777777783  C 14.4 8.08449074074065  14.2918269230769 8.34635416666652  14.0754807692308 8.56336805555566  C 13.8591346153846 8.78038194444434  13.5980769230769 8.88888888888891  13.2923076923077 8.88888888888891  C 12.9865384615385 8.88888888888891  12.7254807692308 8.78038194444434  12.5091346153846 8.56336805555566  C 12.2927884615385 8.34635416666652  12.1846153846154 8.08449074074065  12.1846153846154 7.77777777777783  C 12.1846153846154 7.47106481481478  12.2927884615385 7.20920138888891  12.5091346153846 6.9921875  C 12.7254807692308 6.77517361111109  12.9865384615385 6.66666666666674  13.2923076923077 6.66666666666674  C 13.5980769230769 6.66666666666674  13.8591346153846 6.77517361111109  14.0754807692308 6.9921875  Z M 8.37692307692308 0.486111111111086  C 8.7 0.810185185185219  8.86153846153846 1.2037037037037  8.86153846153846 1.66666666666652  C 8.86153846153846 2.12962962962956  8.7 2.52314814814827  8.37692307692308 2.84722222222217  C 8.05384615384615 3.1712962962963  7.66153846153847 3.33333333333326  7.19999999999999 3.33333333333326  C 6.73846153846154 3.33333333333326  6.34615384615385 3.1712962962963  6.02307692307693 2.84722222222217  C 5.69999999999999 2.52314814814827  5.53846153846155 2.12962962962956  5.53846153846155 1.66666666666652  C 5.53846153846155 1.2037037037037  5.69999999999999 0.810185185185219  6.02307692307693 0.486111111111086  C 6.34615384615385 0.162037037036953  6.73846153846154 0  7.19999999999999 0  C 7.66153846153847 0  8.05384615384615 0.162037037036953  8.37692307692308 0.486111111111086  Z M 12.8769230769231 2.08333333333348  C 13.2576923076923 2.46527777777783  13.4480769230769 2.9224537037037  13.4480769230769 3.45486111111109  C 13.4480769230769 3.99305555555566  13.2576923076923 4.45167824074065  12.8769230769231 4.83072916666652  C 12.4961538461538 5.20978009259261  12.0403846153846 5.39930555555566  11.5096153846154 5.39930555555566  C 10.9730769230769 5.39930555555566  10.5158653846154 5.20978009259261  10.1379807692308 4.83072916666652  C 9.76009615384615 4.45167824074065  9.57115384615385 3.99305555555566  9.57115384615385 3.45486111111109  C 9.57115384615385 2.9224537037037  9.76009615384615 2.46527777777783  10.1379807692308 2.08333333333348  C 10.5158653846154 1.70138888888891  10.9730769230769 1.51041666666674  11.5096153846154 1.51041666666674  C 12.0403846153846 1.51041666666674  12.4961538461538 1.70138888888891  12.8769230769231 2.08333333333348  Z " fill-rule="nonzero" fill="#999999" stroke="none" transform="matrix(1 0 0 1 143 1072 )" />
  </g>
</svg>