<?xml version="1.0" encoding="utf-8"?>
<svg version="1.1" xmlns:xlink="http://www.w3.org/1999/xlink" width="10px" height="10px" xmlns="http://www.w3.org/2000/svg">
  <g transform="matrix(1 0 0 1 -92 -605 )">
    <path d="M 2.00000000390625 9.25074999609376  C 2.00000000390625 9.24974999999999  7.38 9.24499999218748  7.38 9.24500000390625  C 7.81250000390625 9.24475000781251  8.2335 8.89100000390624  8.30925 8.46500000390624  L 8.90799999609376 5.10125000390625  C 9.0259999921875 4.43950000781251  8.5905 3.92325000000001  7.91925000000001 3.92825000390625  L 7.79900000390625 3.92924999999999  C 7.59258530043342 3.93093974273593  7.38616845178597 3.9323564119447  7.17975 3.93350000390626  C 6.95808686647003 3.93527027753998  6.73641312962372 3.93527027753998  6.51474999609375 3.93350000390626  L 6.1515 3.92849999999999  L 6.28625000390625 3.59100000000001  C 6.40625000390625 3.29049999609375  6.54125000390625 2.46900000000001  6.53825000390625 2.09075000390624  C 6.531 1.23475000781248  6.17075000390625 0.744749999999992  5.72625 0.75  C 5.18000000390625 0.75650000390624  4.91225000390625 1.02500000390626  4.91375000390625 1.81799999999998  C 4.91625 3.13824999609377  3.71675000390625 4.46774999999999  2.2755 4.45599999609374  C 2.19491812214385 4.45531535818301  2.1143318817624 4.45531535818301  2.03375000390625 4.45599999609374  L 1.99250000390625 4.45650000000001  C 1.99025000390625 4.45650000000001  2.00000000390625 9.25074999609376  2.00000000390625 9.25074999609376  Z M 7.17725000390625 3.43349999999998  C 7.38308561841935 3.4324370411864  7.58891925434798 3.43102037112605  7.79475 3.42924999609374  L 7.91525000390625 3.42825000000001  C 8.89975000781251 3.42099999609373  9.57275000390625 4.2195  9.40025000390625 5.18900000390624  L 8.80149999609375 8.55249999609377  C 8.6832499921875 9.21649999218751  8.05524999609375 9.74424999609376  7.38050000390624 9.74499999609376  L 2.0025 9.74949999609373  C 1.72655039088937 9.7508847057588  1.50165225075364 9.52844814080269  1.5 9.25250000390626  L 1.49000000390625 4.45749999609374  C 1.48930577689432 4.18241063687253  1.71116557819627 3.95853900862536  1.98624999609375 3.95675000390626  L 2.02925000390625 3.95624999999999  C 2.0985 3.95549999999999  2.18300000390625 3.95549999999999  2.27925 3.95624999999999  C 3.42975 3.96549999609374  4.41549999609375 2.87300000390625  4.41375 1.81899999609376  C 4.41174999609375 0.750249996093733  4.90125 0.260000003906233  5.72000000390625 0.249999996093758  C 6.48375 0.240999996093744  7.02875000390625 0.982499999999997  7.03775000390625 2.0865  C 7.04075000390625 2.42025000000001  6.95750000390625 3.01025000390625  6.85374999609375 3.43475000390625  C 6.9477499921875 3.43475000390625  7.05624999609375 3.43424999999998  7.17699999609375 3.43349999999998  Z M 0.769749996093751 4.5  L 0.500000003906251 4.5  L 0.500000003906251 9.24999999609376  L 0.77499999609375 9.24999999609376  C 0.913071184630127 9.24999999609376  1.02499999804688 9.3619288095105  1.02499999804688 9.49999999804686  C 1.02499999804688 9.63807118658326  0.913071184630131 9.75  0.77499999609375 9.75  L 0.314499996093749 9.75  C 0.313999868477069 9.75000239743425  0.313499735831736 9.75000359615653  0.312999602468864 9.75000359615653  C 0.140328300897778 9.75000359615653  0.000273844568151086 9.61017108051556  0 9.43749999609376  L 0 4.3125  C 0 4.13924999999998  0.14150000390625 3.99999999609376  0.313749996093752 3.99999999609376  L 0.769749996093751 3.99999999609376  C 0.907821184630128 3.99999999609376  1.01974999804688 4.1119288095105  1.01974999804688 4.24999999804686  C 1.01974999804688 4.38807118658326  0.907821184630128 4.5  0.769749996093751 4.5  Z " fill-rule="nonzero" fill="#999999" stroke="none" transform="matrix(1 0 0 1 92 605 )" />
  </g>
</svg>