<?xml version="1.0" encoding="utf-8"?>
<svg version="1.1" xmlns:xlink="http://www.w3.org/1999/xlink" width="13px" height="13px" xmlns="http://www.w3.org/2000/svg">
  <g transform="matrix(1 0 0 1 -50 -7 )">
    <path d="M 12.9418714285714 6.60219444444442  C 12.9418714285714 10.0553194444444  10.0525285714286 12.8644027777778  6.50074285714285 12.8644027777778  C 2.94951428571429 12.8644027777778  0.0601714285714365 10.0553194444444  0.0601714285714365 6.60219444444442  C 0.0601714285714365 3.14961111111108  2.94951428571429 0.341611111111092  6.50074285714285 0.341611111111092  C 10.0525285714286 0.341611111111092  12.9418714285714 3.14961111111108  12.9418714285714 6.60219444444442  Z M 11.8738285714286 6.60219444444442  C 11.8738285714286 3.72865277777777  9.46808571428571 1.39027777777778  6.51077142857142 1.39027777777778  C 3.55401428571429 1.39027777777778  1.14882857142857 3.7281111111111  1.14882857142857 6.60219444444442  C 1.14882857142857 9.47736111111112  3.55401428571429 11.8162777777778  6.51077142857142 11.8162777777778  C 9.46808571428571 11.8162777777778  11.8738285714286 9.47736111111112  11.8738285714286 6.60219444444442  Z " fill-rule="nonzero" fill="#999999" stroke="none" transform="matrix(1 0 0 1 50 7 )" />
  </g>
</svg>