<?xml version="1.0" encoding="utf-8"?>
<svg version="1.1" xmlns:xlink="http://www.w3.org/1999/xlink" width="12px" height="12px" xmlns="http://www.w3.org/2000/svg">
  <g transform="matrix(1 0 0 1 -348 -16 )">
    <path d="M 11.2819714968576 5.43427387802072  L 6.47494379038682 5.43427387802072  L 6.47494379038682 0.770736301672997  C 6.47494379038682 0.555496007789685  6.2597034965035 0.268509374170122  5.97271686288394 0.268509374170122  C 5.68573022926444 0.268509374170122  5.47048993538107 0.555496007789685  5.47048993538107 0.842482641409219  L 5.47048993538107 5.50602021775694  L 0.806937062937038 5.50602021775694  C 0.519950429317532 5.4342734956183  0.23296379569797 5.72126051164025  0.23296379569797 6.00824714525982  C 0.23296379569797 6.29523377887935  0.519950429317532 6.51047407276269  0.735190723200844 6.51047407276269  L 5.39872829954857 6.51047407276269  L 5.39872829954857 11.1740116491104  C 5.47047502168721 11.4609982827299  5.68571493316813 11.7479849163495  5.97270156678763 11.7479849163495  C 6.2596882004072 11.7479849163495  6.47492849429051 11.4609982827299  6.47492849429051 11.2457579888466  L 6.47492849429051 6.51046897406391  L 11.2102175090732 6.51046897406391  C 11.4972041426928 6.51046897406391  11.7124444365761 6.22348234044438  11.7124444365761 6.00824204656104  C 11.7124444365761 5.7930017526777  11.568950482429 5.43426877932194  11.2819638488094 5.43426877932194  Z " fill-rule="nonzero" fill="#2c2c2c" stroke="none" transform="matrix(1 0 0 1 348 16 )" />
  </g>
</svg>