<?xml version="1.0" encoding="utf-8"?>
<svg version="1.1" xmlns:xlink="http://www.w3.org/1999/xlink" width="375px" height="134px" xmlns="http://www.w3.org/2000/svg">
  <defs>
    <filter x="-20px" y="-15px" width="375px" height="134px" filterUnits="userSpaceOnUse" id="filter300">
      <feOffset dx="0" dy="5" in="SourceAlpha" result="shadowOffsetInner" />
      <feGaussianBlur stdDeviation="10" in="shadowOffsetInner" result="shadowGaussian" />
      <feComposite in2="shadowGaussian" operator="atop" in="SourceAlpha" result="shadowComposite" />
      <feColorMatrix type="matrix" values="0 0 0 0 0.298039215686275  0 0 0 0 0.349019607843137  0 0 0 0 0.972549019607843  0 0 0 0.149019607843137 0  " in="shadowComposite" />
    </filter>
    <g id="widget301">
      <path d="M 1 4  A 3 3 0 0 1 4 1 L 331 1  A 3 3 0 0 1 334 4 L 334 90  A 3 3 0 0 1 331 93 L 4 93  A 3 3 0 0 1 1 90 L 1 4  Z " fill-rule="nonzero" fill="#ffffff" stroke="none" />
      <path d="M 0.5 4  A 3.5 3.5 0 0 1 4 0.5 L 331 0.5  A 3.5 3.5 0 0 1 334.5 4 L 334.5 90  A 3.5 3.5 0 0 1 331 93.5 L 4 93.5  A 3.5 3.5 0 0 1 0.5 90 L 0.5 4  Z " stroke-width="1" stroke="#f2f2f2" fill="none" stroke-opacity="0.498039215686275" />
    </g>
  </defs>
  <g transform="matrix(1 0 0 1 20 15 )">
    <use xlink:href="#widget301" filter="url(#filter300)" />
    <use xlink:href="#widget301" />
  </g>
</svg>