<?xml version="1.0" encoding="utf-8"?>
<svg version="1.1" xmlns:xlink="http://www.w3.org/1999/xlink" width="19px" height="19px" xmlns="http://www.w3.org/2000/svg">
  <g transform="matrix(1 0 0 1 -832 -147 )">
    <path d="M 9.47368421070394 0.052549538375473  C 11.9862815849843 0.052549538375473  14.3959678162284 1.05068290001124  16.1726315786441 2.82736842105263  L 14.6842105260405 4.31578947368421  C 13.3023419213746 2.93377986497207  11.4280412591062 2.15736309678861  9.47368422952792 2.15736309678861  C 5.40421765190365 2.15736309678861  2.10526317703449 5.45631757171961  2.10526317703449 9.52578414942019  C 2.10526317703449 13.5952507271208  5.40421765190365 16.8942052020518  9.47368422952792 16.8942052020518  C 13.5429431903478 16.8942052020518  16.841811661128 13.5955747397781  16.8421052628421 9.52631578947368  L 18.9473684206974 9.52631578947368  C 18.9473684210526 14.7584050630882  14.7058555247923 18.9999179594281  9.47368421070394 18.9999179594281  C 4.24151289661557 18.9999179594281  0 14.7584050630882  0 9.52623374890179  C 0 4.29406243471533  4.24151289661557 0.052549538375473  9.47368421070394 0.052549538375473  Z " fill-rule="nonzero" fill="#cccccc" stroke="none" transform="matrix(1 0 0 1 832 147 )" />
  </g>
</svg>