<?xml version="1.0" encoding="utf-8"?>
<svg version="1.1" xmlns:xlink="http://www.w3.org/1999/xlink" width="10px" height="10px" xmlns="http://www.w3.org/2000/svg">
  <g transform="matrix(1 0 0 1 -28 -568 )">
    <path d="M 9.36 8.78  L 5.695 5.115  L 9.36 1.45  C 9.545 1.265  9.545 0.96  9.36 0.775  L 9.34 0.755  C 9.155 0.57  8.85 0.57  8.665 0.755  L 5 4.425  L 1.335 0.755  C 1.15 0.57  0.845 0.57  0.66 0.755  L 0.64 0.775  C 0.45 0.96  0.45 1.265  0.64 1.45  L 4.305 5.115  L 0.64 8.78  C 0.455 8.965  0.455 9.27  0.64 9.455  L 0.66 9.475  C 0.845 9.66  1.15 9.66  1.335 9.475  L 5 5.81  L 8.665 9.475  C 8.85 9.66  9.155 9.66  9.34 9.475  L 9.36 9.455  C 9.545 9.27  9.545 8.965  9.36 8.78  Z " fill-rule="nonzero" fill="#ffffff" stroke="none" transform="matrix(1 0 0 1 28 568 )" />
  </g>
</svg>