<?xml version="1.0" encoding="utf-8"?>
<svg version="1.1" xmlns:xlink="http://www.w3.org/1999/xlink" width="20px" height="20px" xmlns="http://www.w3.org/2000/svg">
  <g transform="matrix(1 0 0 1 -20 -328 )">
    <path d="M 19.6 9.94999999999999  C 19.6 4.64999999999998  15.3 0.350000000000023  10 0.350000000000023  C 4.69999999999999 0.350000000000023  0.399999999999977 4.69999999999999  0.399999999999977 9.94999999999999  C 0.399999999999977 15.2  4.69999999999999 19.55  10 19.55  C 15.3 19.55  19.6 15.25  19.6 9.94999999999999  Z M 15.85 6.44999999999999  C 16.1 6.69999999999999  16.1 7.09999999999997  15.85 7.30000000000001  L 9.44999999999999 13.75  C 9.19999999999999 14  8.85000000000002 14.15  8.5 14.15  C 8.14999999999998 14.15  7.80000000000001 14  7.55000000000001 13.75  L 4.25 10.45  C 4 10.2  4 9.84999999999997  4.25 9.59999999999997  C 4.5 9.34999999999997  4.85000000000002 9.34999999999997  5.10000000000002 9.59999999999997  L 8.39999999999998 12.9  C 8.44999999999999 12.95  8.60000000000002 12.95  8.64999999999998 12.9  L 15 6.44999999999999  C 15.25 6.19999999999999  15.6 6.19999999999999  15.85 6.44999999999999  Z " fill-rule="nonzero" fill="#339900" stroke="none" transform="matrix(1 0 0 1 20 328 )" />
  </g>
</svg>