<?xml version="1.0" encoding="utf-8"?>
<svg version="1.1" xmlns:xlink="http://www.w3.org/1999/xlink" width="169px" height="150px" xmlns="http://www.w3.org/2000/svg">
  <defs>
    <filter x="966px" y="118px" width="169px" height="150px" filterUnits="userSpaceOnUse" id="filter265">
      <feOffset dx="0" dy="0" in="SourceAlpha" result="shadowOffsetInner" />
      <feGaussianBlur stdDeviation="2.5" in="shadowOffsetInner" result="shadowGaussian" />
      <feComposite in2="shadowGaussian" operator="atop" in="SourceAlpha" result="shadowComposite" />
      <feColorMatrix type="matrix" values="0 0 0 0 0.8  0 0 0 0 0.8  0 0 0 0 0.8  0 0 0 0.4 0  " in="shadowComposite" />
    </filter>
    <g id="widget266">
      <path d="M 972 259  C 972 259  972 133.30635451505  972 133.30635451505  C 972 131.649500265558  973.343145750508 130.30635451505  975 130.30635451505  C 975 130.30635451505  1092.08675002733 130.30635451505  1092.08675002733 130.30635451505  C 1092.08675002733 130.30635451505  1102.16884869322 124.524295684541  1102.16884869322 124.524295684541  C 1102.16884869322 124.524295684541  1113.98313499892 130.30635451505  1113.98313499892 130.30635451505  C 1113.98313499892 130.30635451505  1126 130.30635451505  1126 130.30635451505  C 1127.65685424949 130.30635451505  1129 131.649500265558  1129 133.30635451505  C 1129 133.30635451505  1129 259  1129 259  C 1129 260.656854249492  1127.65685424949 262  1126 262  C 1126 262  975 262  975 262  C 973.343145750508 262  972 260.656854249492  972 259  Z " fill-rule="nonzero" fill="#ffffff" stroke="none" />
    </g>
  </defs>
  <g transform="matrix(1 0 0 1 -966 -118 )">
    <use xlink:href="#widget266" filter="url(#filter265)" />
    <use xlink:href="#widget266" />
  </g>
</svg>