<?xml version="1.0" encoding="utf-8"?>
<svg version="1.1" xmlns:xlink="http://www.w3.org/1999/xlink" width="18px" height="18px" xmlns="http://www.w3.org/2000/svg">
  <g transform="matrix(1 0 0 1 -991 -233 )">
    <path d="M 12 2  L 12 0  L 18 0  L 18 5  L 16 5  L 16 2  L 12 2  Z M 0 0  L 6 0  L 6 2  L 2 2  L 2 5  L 0 5  L 0 0  Z M 18 18  L 12 18  L 12 16  L 16 16  L 16 13  L 18 13  L 18 18  Z M 6 16  L 6 18  L 0 18  L 0 13  L 2 13  L 2 16  L 6 16  Z M 0 10  L 0 8  L 18 8  L 18 10  L 0 10  Z " fill-rule="nonzero" fill="#b0b0b0" stroke="none" transform="matrix(1 0 0 1 991 233 )" />
  </g>
</svg>