<?xml version="1.0" encoding="utf-8"?>
<svg version="1.1" xmlns:xlink="http://www.w3.org/1999/xlink" width="12px" height="6px" xmlns="http://www.w3.org/2000/svg">
  <g transform="matrix(1 0 0 1 -738 -115 )">
    <path d="M 0.0662109374999886 0.487316176470586  L 0.0662109374999886 0  L 11.9337890625 0  L 11.9337890625 0.487316176470586  L 0.0662109374999886 0.487316176470586  Z M 0.522656250000011 1  L 0.522656250000011 0.487316176470586  L 11.47734375 0.487316176470586  L 11.47734375 1  L 0.522656250000011 1  Z M 0.979101562500034 1.34650735294118  L 0.979101562500034 1  L 11.0208984375 1  L 11.0208984375 1.34650735294118  L 0.979101562500034 1.34650735294118  Z M 1.435546875 1.77610294117647  L 1.435546875 1.34650735294118  L 10.564453125 1.34650735294118  L 10.564453125 1.77610294117647  L 1.435546875 1.77610294117647  Z M 1.89199218749997 2.20569852941176  L 1.89199218749997 1.77610294117647  L 10.1080078125 1.77610294117647  L 10.1080078125 2.20569852941176  L 1.89199218749997 2.20569852941176  Z M 2.34843749999999 2.63529411764706  L 2.34843749999999 2.20569852941176  L 9.65156250000001 2.20569852941176  L 9.65156250000001 2.63529411764706  L 2.34843749999999 2.63529411764706  Z M 2.80488281250001 3.06488970588235  L 2.80488281250001 2.63529411764706  L 9.19511718749999 2.63529411764706  L 9.19511718749999 3.06488970588235  L 2.80488281250001 3.06488970588235  Z M 3.26132812500003 3.49448529411764  L 3.26132812500003 3.06488970588235  L 8.73867187499997 3.06488970588235  L 8.73867187499997 3.49448529411764  L 3.26132812500003 3.49448529411764  Z M 3.7177734375 3.92408088235294  L 3.7177734375 3.49448529411764  L 8.2822265625 3.49448529411764  L 8.2822265625 3.92408088235294  L 3.7177734375 3.92408088235294  Z M 4.17421874999997 4.35367647058823  L 4.17421874999997 3.92408088235294  L 7.82578125000003 3.92408088235294  L 7.82578125000003 4.35367647058823  L 4.17421874999997 4.35367647058823  Z M 4.63066406249999 4.78327205882353  L 4.63066406249999 4.35367647058823  L 7.36933593750001 4.35367647058823  L 7.36933593750001 4.78327205882353  L 4.63066406249999 4.78327205882353  Z M 5.08710937500001 5.21286764705883  L 5.08710937500001 4.78327205882353  L 6.91289062499999 4.78327205882353  L 6.91289062499999 5.21286764705883  L 5.08710937500001 5.21286764705883  Z M 5.54355468750003 5.64246323529412  L 5.54355468750003 5.21286764705883  L 6.45644531249997 5.21286764705883  L 6.45644531249997 5.64246323529412  L 5.54355468750003 5.64246323529412  Z " fill-rule="nonzero" fill="#999999" stroke="none" transform="matrix(1 0 0 1 738 115 )" />
  </g>
</svg>