<?xml version="1.0" encoding="utf-8"?>
<svg version="1.1" xmlns:xlink="http://www.w3.org/1999/xlink" width="25px" height="25px" xmlns="http://www.w3.org/2000/svg">
  <g transform="matrix(1 0 0 1 -859 -110 )">
    <path d="M 0.072585147907489 12.4706867670874  C 0.072585147907489 19.3243997764702  5.64768285862908 24.9022892239518  12.5041876047719 24.9022892239518  C 19.3579006144001 24.9022892239518  24.9357900616363 19.3243997767156  24.9357900613909 12.4706867670874  C 24.9357900611456 5.61697375745918  19.3579006141547 0.0390843104683682  12.5041876047719 0.0390843104683682  C 5.65047459538903 0.0390843104683682  0.072585147907489 5.61697375770453  0.072585147907489 12.4706867670874  Z M 1.7978782803176 12.4706867670874  C 1.7978782803176 6.56616415402207  6.59966499170656 1.76437744263308  12.5041876047719 1.76437744263308  C 18.4059184813226 1.76437744263308  23.2104969292262 6.56616415402207  23.2104969292262 12.4706867670874  C 23.2104969292262 18.3724176436381  18.4087102178373 23.1769960915417  12.5041876047719 23.1769960915417  C 6.59966499170656 23.1769960915417  1.7978782803176 18.3752093801527  1.7978782803176 12.4706867670874  Z M 7.3227247347578 13.3333333334151  C 6.84533780008439 13.3333333334151  6.46007816867541 12.9452819654915  6.46007816867541 12.4678950305728  C 6.46007816867541 11.9905080958994  6.84533780008439 11.6052484644904  7.3227247347578 11.6052484644904  L 11.6387493019296 11.6052484644904  L 11.6387493019296 7.28922389731863  C 11.6387493019296 6.81183696264527  12.0240089333386 6.42657733123625  12.5013958682573 6.42657733123625  C 12.9787828029307 6.42657733123625  13.3640424343397 6.81183696264527  13.3640424343397 7.28922389731863  L 13.3640424343397 11.6052484644904  L 17.6800670017568 11.6052484644904  C 18.1574539364302 11.6052484644904  18.5427135678392 11.9905080958994  18.5427135678392 12.4678950305728  C 18.5427135678392 12.9452819652462  18.1574539364302 13.3305415966552  17.6800670017568 13.3305415969005  L 13.3668341708543 13.3305415969005  L 13.3668341708543 17.6465661640723  C 13.3668341708543 18.1239530987457  12.9815745394453 18.5092127301547  12.5041876047719 18.5092127304  C 12.0268006700986 18.5092127304  11.6415410386895 18.1239530989911  11.6415410384442 17.6465661640723  L 11.6415410384442 13.3333333334151  L 7.3227247347578 13.3333333334151  Z " fill-rule="nonzero" fill="#69707f" stroke="none" transform="matrix(1 0 0 1 859 110 )" />
  </g>
</svg>