<?xml version="1.0" encoding="utf-8"?>
<svg version="1.1" xmlns:xlink="http://www.w3.org/1999/xlink" width="28px" height="26px" xmlns="http://www.w3.org/2000/svg">
  <g transform="matrix(1 0 0 1 -648 -804 )">
    <path d="M 15.46875 3.32150461320085  C 14.0833333333333 2.68180742843624  12.59375 2.36195883605394  11 2.36195883605394  C 9.40625 2.36195883605394  7.91666666666667 2.68180742843624  6.53125 3.32150461320085  C 5.14583333333333 3.96120179796546  4.04427083333333 4.82848355807901  3.2265625 5.92334989354152  C 2.40885416666667 7.01821622900402  2 8.1930447125621  2 9.44783534421575  C 2 10.4565885971138  2.27604166666667 11.4284362431985  2.828125 12.3633782824698  C 3.38020833333333 13.2983203217412  4.15625 14.1102436716347  5.15625 14.7991483321505  L 6.671875 15.8325053229241  L 6.125 17.3825408090845  C 6.47916666666667 17.1365034303288  6.80208333333333 16.8966169860421  7.09375 16.6628814762243  L 7.78125 16.0908445706175  L 8.609375 16.2753726046842  C 9.421875 16.4475987698131  10.21875 16.5337118523776  11 16.5337118523776  C 12.59375 16.5337118523776  14.0833333333333 16.2138632599953  15.46875 15.5741660752307  C 16.8541666666667 14.9344688904661  17.9557291666667 14.0671871303525  18.7734375 12.97232079489  C 19.5911458333333 11.8774544594275  20 10.7026259758694  20 9.44783534421575  C 20 8.1930447125621  19.5911458333333 7.01821622900402  18.7734375 5.92334989354152  C 17.9557291666667 4.82848355807901  16.8541666666667 3.96120179796546  15.46875 3.32150461320085  Z M 5.4765625 1.26401703335699  C 7.16927083333333 0.421339011118996  9.01041666666667 0  11 0  C 12.9895833333333 0  14.8307291666667 0.421339011118996  16.5234375 1.26401703335699  C 18.2161458333333 2.10669505559498  19.5520833333333 3.25384433404305  20.53125 4.70546486870121  C 21.5104166666667 6.15708540335935  22 7.73787556186421  22 9.44783534421575  C 22 11.1577951265673  21.5104166666667 12.7385852850722  20.53125 14.1902058197303  C 19.5520833333333 15.6418263543885  18.2161458333333 16.7889756328365  16.5234375 17.6316536550745  C 14.8307291666667 18.4743316773125  12.9895833333333 18.8956706884315  11 18.8956706884315  C 10.1041666666667 18.8956706884315  9.1875 18.7972557369293  8.25 18.6004258339248  C 6.95833333333333 19.6829903004495  5.51041666666667 20.4703099124675  3.90625 20.9623846699787  C 3.53125 21.0731014904187  3.08333333333333 21.171516441921  2.5625 21.2576295244854  L 2.515625 21.2576295244854  C 2.40104166666667 21.2576295244854  2.29427083333333 21.2084220487343  2.1953125 21.1100070972321  C 2.09635416666667 21.0115921457298  2.03645833333333 20.8824225218831  2.015625 20.722498225692  C 2.00520833333333 20.6855926188786  2 20.6456115448308  2 20.6025550035486  C 2 20.5594984622664  2.00260416666667 20.5195173882186  2.0078125 20.4826117814053  C 2.01302083333333 20.4457061745919  2.0234375 20.4088005677786  2.0390625 20.3718949609652  L 2.078125 20.2796309439319  C 2.078125 20.2796309439319  2.09635416666667 20.245800804353  2.1328125 20.1781405251952  C 2.16927083333333 20.1104802460374  2.19010416666667 20.0797255736929  2.1953125 20.0858765081618  C 2.20052083333333 20.0920274426307  2.22395833333333 20.0612727702863  2.265625 19.9936124911285  C 2.30729166666667 19.9259522119707  2.328125 19.8982730068607  2.328125 19.9105748757984  C 2.38020833333333 19.8367636621718  2.5 19.6829903004495  2.6875 19.4492547906317  C 2.875 19.2155192808138  3.01041666666667 19.0340667139815  3.09375 18.9048970901348  C 3.17708333333333 18.7757274662881  3.29427083333333 18.5973503666903  3.4453125 18.3697657913414  C 3.59635416666667 18.1421812159924  3.7265625 17.9053702389401  3.8359375 17.6593328601845  C 3.9453125 17.4132954814289  4.05208333333333 17.1426543647977  4.15625 16.847409510291  C 2.86458333333333 15.9616749467708  1.84895833333333 14.8729595457771  1.109375 13.5812633073101  C 0.369791666666667 12.2895670688432  0 10.9117577478117  0 9.44783534421575  C 0 7.73787556186421  0.489583333333333 6.15708540335935  1.46875 4.70546486870121  C 2.44791666666667 3.25384433404305  3.78385416666667 2.10669505559498  5.4765625 1.26401703335699  Z M 26.890625 18.3144073811214  C 26.1510416666667 19.5999526851195  25.1354166666667 20.6855926188786  23.84375 21.5713271823989  C 23.9479166666667 21.8665720369056  24.0546875 22.1372131535368  24.1640625 22.3832505322924  C 24.2734375 22.629287911048  24.4036458333333 22.8660988881003  24.5546875 23.0936834634493  C 24.7057291666667 23.3212680387982  24.8229166666667 23.499645138396  24.90625 23.6288147622427  C 24.9895833333333 23.7579843860894  25.125 23.9394369529217  25.3125 24.1731724627395  C 25.5 24.4069079725574  25.6197916666667 24.5606813342796  25.671875 24.6344925479063  C 25.6822916666667 24.6467944168441  25.703125 24.6744736219541  25.734375 24.7175301632363  C 25.765625 24.7605867045186  25.7890625 24.791341376863  25.8046875 24.8097941802697  C 25.8203125 24.8282469836764  25.8411458333333 24.8590016560208  25.8671875 24.9020581973031  C 25.8932291666667 24.9451147385853  25.9114583333333 24.9789448781642  25.921875 25.0035486160397  L 25.9609375 25.0958126330731  C 25.9609375 25.0958126330731  25.9713541666667 25.1327182398864  25.9921875 25.2065294535131  C 26.0130208333333 25.2803406671398  26.015625 25.3203217411876  26 25.3264726756565  C 25.984375 25.3326236101254  25.9791666666667 25.3726046841732  25.984375 25.4464158977999  C 25.953125 25.6186420629288  25.8854166666667 25.7539626212444  25.78125 25.8523775727466  C 25.6770833333333 25.9507925242489  25.5625 25.9938490655311  25.4375 25.9815471965933  C 24.9166666666667 25.8954341140289  24.46875 25.7970191625266  24.09375 25.6863023420866  C 22.4895833333333 25.1942275845753  21.0416666666667 24.4069079725574  19.75 23.3243435060326  C 18.8125 23.5211734090371  17.8958333333333 23.6195883605394  17 23.6195883605394  C 14.1770833333333 23.6195883605394  11.71875 22.8076650106458  9.625 21.1838183108588  C 10.2291666666667 21.2330257866099  10.6875 21.2576295244854  11 21.2576295244854  C 12.6770833333333 21.2576295244854  14.2864583333333 20.9808374733854  15.828125 20.4272533711852  C 17.3697916666667 19.8736692689851  18.7447916666667 19.0801987224982  19.953125 18.0468417317246  C 21.2552083333333 16.9150697894488  22.2552083333333 15.611071682044  22.953125 14.1348474095103  C 23.6510416666667 12.6586231369766  24 11.0962857818784  24 9.44783534421575  C 24 8.50059143600662  23.8802083333333 7.56564939673527  23.640625 6.6430092264017  C 24.984375 7.51644192098415  26.046875 8.61130825644665  26.828125 9.92760823278921  C 27.609375 11.2439082091318  28 12.6586231369766  28 14.1717530163236  C 28 15.6479772888573  27.6302083333333 17.0288620771233  26.890625 18.3144073811214  Z " fill-rule="nonzero" fill="#797979" stroke="none" transform="matrix(1 0 0 1 648 804 )" />
  </g>
</svg>