<?xml version="1.0" encoding="utf-8"?>
<svg version="1.1" xmlns:xlink="http://www.w3.org/1999/xlink" width="20px" height="26px" xmlns="http://www.w3.org/2000/svg">
  <g transform="matrix(1 0 0 1 -841 -803 )">
    <path d="M 2.5 26  L 0 26  C 0 20.529751049295  4.47715250169207 16.0952380952381  10 16.0952380952381  C 15.5228474983079 16.0952380952381  20 20.529751049295  20 26  L 17.5 26  C 17.5 21.8973132869712  14.1421356237309 18.5714285714286  10 18.5714285714286  C 5.85786437626905 18.5714285714286  2.5 21.8973132869712  2.5 26  Z M 17.5 7.42857142857143  C 17.5 11.5328571428571  14.14375 14.8571428571429  10 14.8571428571429  C 5.85625 14.8571428571429  2.5 11.5328571428571  2.5 7.42857142857143  C 2.5 3.32428571428572  5.85625 0  10 0  C 14.14375 0  17.5 3.32428571428571  17.5 7.42857142857143  Z M 5 7.42857142857143  C 5 10.1647619047619  7.2375 12.3809523809524  10 12.3809523809524  C 12.7625 12.3809523809524  15 10.1647619047619  15 7.42857142857143  C 15 4.69238095238095  12.7625 2.47619047619048  10 2.47619047619048  C 7.2375 2.47619047619048  5 4.69238095238095  5 7.42857142857143  Z " fill-rule="nonzero" fill="#585de0" stroke="none" transform="matrix(1 0 0 1 841 803 )" />
  </g>
</svg>