<?xml version="1.0" encoding="utf-8"?>
<svg version="1.1" xmlns:xlink="http://www.w3.org/1999/xlink" width="25px" height="25px" xmlns="http://www.w3.org/2000/svg">
  <g transform="matrix(1 0 0 1 -738 -805 )">
    <path d="M 2.5 19.23125  L 4.70375 17.5  L 22.5 17.5  L 22.5 2.5  L 2.5 2.5  L 2.5 19.23125  Z M 23.75 20  L 5.56875 20  L 0 24.375  L 0 1.25  C 0 0.559644062711508  0.559644062711508 0  1.25 0  L 23.75 0  C 24.4403559372885 0  25 0.559644062711508  25 1.25  L 25 18.75  C 25 19.4403559372885  24.4403559372885 20  23.75 20  Z M 11.25 16.25  L 11.25 13.75  L 13.75 13.75  L 13.75 16.25  L 11.25 16.25  Z M 10.66125 7.7575  L 8.20875 7.26625  C 8.6175605601827 5.22032990310552  10.4138026696602 3.74750000317725  12.5001667598884 3.74750000317725  C 14.9171028963354 3.74750000317725  16.8764167598884 5.70681386673024  16.8764167598884 8.12375000317725  C 16.8764167598884 10.5406861396243  14.9171028963354 12.5000000031772  12.5001667598884 12.5000000031772  L 11.25 12.5  L 11.25 10  L 12.5 10  C 13.5354879408291 9.99993500087475  14.3748823034487 9.16048794656311  14.3748823034487 8.12500000369399  C 14.3748823034487 7.08946609776126  13.5354162093814 6.25000000369399  12.4998823034487 6.25000000369399  C 11.6060219094501 6.25000000369399  10.8364466389847 6.88097701590449  10.66125 7.7575  Z " fill-rule="nonzero" fill="#585de0" stroke="none" transform="matrix(1 0 0 1 738 805 )" />
  </g>
</svg>