<?xml version="1.0" encoding="utf-8"?>
<svg version="1.1" xmlns:xlink="http://www.w3.org/1999/xlink" width="26px" height="25px" xmlns="http://www.w3.org/2000/svg">
  <g transform="matrix(1 0 0 1 -851 -160 )">
    <path d="M 20.0909090909091 9.52380952380952  L 20.0909090909091 7.14285714285714  L 26 7.14285714285714  L 26 9.52380952380952  L 20.0909090909091 9.52380952380952  Z M 17.7272727272727 15.4761904761905  L 17.7272727272727 13.0952380952381  L 26 13.0952380952381  L 26 15.4761904761905  L 17.7272727272727 15.4761904761905  Z M 21.2727272727273 21.4285714285714  L 21.2727272727273 19.047619047619  L 26 19.047619047619  L 26 21.4285714285714  L 21.2727272727273 21.4285714285714  Z M 2.36363636363636 25  L 0 25  C 0 19.7401452397067  4.23294418341795 15.4761904761905  9.45454545454546 15.4761904761905  C 14.676146725673 15.4761904761905  18.9090909090909 19.7401452397067  18.9090909090909 25  L 16.5454545454545 25  C 16.5454545454545 21.05510892978  13.3707464078911 17.8571428571429  9.45454545454546 17.8571428571429  C 5.53834450119983 17.8571428571429  2.36363636363636 21.05510892978  2.36363636363636 25  Z M 16.5454545454545 7.14285714285714  C 16.5454545454545 11.0892857142857  13.3722727272727 14.2857142857143  9.45454545454546 14.2857142857143  C 5.53681818181818 14.2857142857143  2.36363636363636 11.0892857142857  2.36363636363636 7.14285714285714  C 2.36363636363636 3.19642857142857  5.53681818181818 0  9.45454545454546 0  C 13.3722727272727 0  16.5454545454545 3.19642857142857  16.5454545454545 7.14285714285714  Z M 4.72727272727273 7.14285714285714  C 4.72727272727273 9.77380952380953  6.84272727272727 11.9047619047619  9.45454545454546 11.9047619047619  C 12.0663636363636 11.9047619047619  14.1818181818182 9.77380952380953  14.1818181818182 7.14285714285714  C 14.1818181818182 4.51190476190476  12.0663636363636 2.38095238095238  9.45454545454546 2.38095238095238  C 6.84272727272727 2.38095238095238  4.72727272727273 4.51190476190476  4.72727272727273 7.14285714285714  Z " fill-rule="nonzero" fill="#585de0" stroke="none" transform="matrix(1 0 0 1 851 160 )" />
  </g>
</svg>