<?xml version="1.0" encoding="utf-8"?>
<svg version="1.1" xmlns:xlink="http://www.w3.org/1999/xlink" width="15px" height="23px" xmlns="http://www.w3.org/2000/svg">
  <g transform="matrix(1 0 0 1 -553 -498 )">
    <path d="M 10.23193359375 5.36067708333333  C 10.59814453125 5.74001736111111  10.78125 6.18923611111111  10.78125 6.70833333333333  C 10.78125 6.83810763888889  10.73486328125 6.95041232638889  10.64208984375 7.04524739583333  C 10.54931640625 7.14008246527778  10.439453125 7.1875  10.3125 7.1875  C 10.185546875 7.1875  10.07568359375 7.14008246527778  9.98291015625 7.04524739583333  C 9.89013671875 6.95041232638889  9.84375 6.83810763888889  9.84375 6.70833333333333  C 9.84375 6.24913194444444  9.580078125 5.89474826388889  9.052734375 5.64518229166667  C 8.525390625 5.39561631944444  8.0078125 5.27083333333333  7.5 5.27083333333333  C 7.373046875 5.27083333333333  7.26318359375 5.22341579861111  7.17041015625 5.12858072916667  C 7.07763671875 5.03374565972222  7.03125 4.92144097222222  7.03125 4.79166666666667  C 7.03125 4.66189236111111  7.07763671875 4.54958767361111  7.17041015625 4.45475260416667  C 7.26318359375 4.35991753472222  7.373046875 4.3125  7.5 4.3125  C 7.98828125 4.3125  8.47412109375 4.39236111111111  8.95751953125 4.55208333333333  C 9.44091796875 4.71180555555555  9.86572265625 4.98133680555555  10.23193359375 5.36067708333333  Z M 12.12890625 9.40364583333333  C 12.79296875 8.61501736111111  13.125 7.71657986111111  13.125 6.70833333333333  C 13.125 5.98958333333333  12.95654296875 5.32074652777778  12.61962890625 4.70182291666667  C 12.28271484375 4.08289930555555  11.84326171875 3.57628038194444  11.30126953125 3.18196614583333  C 10.75927734375 2.78765190972222  10.15869140625 2.47819010416667  9.49951171875 2.25358072916667  C 8.84033203125 2.02897135416667  8.173828125 1.91666666666667  7.5 1.91666666666667  C 6.826171875 1.91666666666667  6.15966796875 2.02897135416667  5.50048828125 2.25358072916667  C 4.84130859375 2.47819010416667  4.24072265625 2.78765190972222  3.69873046875 3.18196614583333  C 3.15673828125 3.57628038194444  2.71728515625 4.08289930555555  2.38037109375 4.70182291666667  C 2.04345703125 5.32074652777778  1.875 5.98958333333333  1.875 6.70833333333333  C 1.875 7.71657986111111  2.20703125 8.61501736111111  2.87109375 9.40364583333333  C 2.96875 9.51345486111111  3.11767578125 9.67816840277778  3.31787109375 9.89778645833333  C 3.51806640625 10.1174045138889  3.6669921875 10.2821180555556  3.7646484375 10.3919270833333  C 5.0146484375 11.9192708333333  5.703125 13.4066840277778  5.830078125 14.8541666666667  L 9.169921875 14.8541666666667  C 9.296875 13.4066840277778  9.9853515625 11.9192708333333  11.2353515625 10.3919270833333  C 11.3330078125 10.2821180555556  11.48193359375 10.1174045138889  11.68212890625 9.89778645833333  C 11.88232421875 9.67816840277778  12.03125 9.51345486111111  12.12890625 9.40364583333333  Z M 14.34814453125 3.94563802083333  C 14.78271484375 4.79915364583333  15 5.72005208333333  15 6.70833333333333  C 15 8.25564236111111  14.4970703125 9.59331597222222  13.4912109375 10.7213541666667  C 13.0517578125 11.2105034722222  12.68798828125 11.6447482638889  12.39990234375 12.0240885416667  C 12.11181640625 12.4034288194444  11.8212890625 12.8800998263889  11.5283203125 13.4541015625  C 11.2353515625 14.0281032986111  11.0693359375 14.5646701388889  11.0302734375 15.0638020833333  C 11.4892578125 15.3433159722222  11.71875 15.7526041666667  11.71875 16.2916666666667  C 11.71875 16.6610243055556  11.5966796875 16.98046875  11.3525390625 17.25  C 11.5966796875 17.51953125  11.71875 17.8389756944444  11.71875 18.2083333333333  C 11.71875 18.7274305555556  11.4990234375 19.1317274305556  11.0595703125 19.4212239583333  C 11.1865234375 19.6508246527778  11.25 19.8854166666667  11.25 20.125  C 11.25 20.5842013888889  11.09619140625 20.9385850694444  10.78857421875 21.1881510416667  C 10.48095703125 21.4377170138889  10.1025390625 21.5625  9.6533203125 21.5625  C 9.4580078125 22.0017361111111  9.1650390625 22.3511284722222  8.7744140625 22.6106770833333  C 8.3837890625 22.8702256944444  7.958984375 23  7.5 23  C 7.041015625 23  6.6162109375 22.8702256944444  6.2255859375 22.6106770833333  C 5.8349609375 22.3511284722222  5.5419921875 22.0017361111111  5.3466796875 21.5625  C 4.8974609375 21.5625  4.51904296875 21.4377170138889  4.21142578125 21.1881510416667  C 3.90380859375 20.9385850694444  3.75 20.5842013888889  3.75 20.125  C 3.75 19.8854166666667  3.8134765625 19.6508246527778  3.9404296875 19.4212239583333  C 3.5009765625 19.1317274305556  3.28125 18.7274305555556  3.28125 18.2083333333333  C 3.28125 17.8389756944444  3.4033203125 17.51953125  3.6474609375 17.25  C 3.4033203125 16.98046875  3.28125 16.6610243055556  3.28125 16.2916666666667  C 3.28125 15.7526041666667  3.5107421875 15.3433159722222  3.9697265625 15.0638020833333  C 3.9306640625 14.5646701388889  3.7646484375 14.0281032986111  3.4716796875 13.4541015625  C 3.1787109375 12.8800998263889  2.88818359375 12.4034288194444  2.60009765625 12.0240885416667  C 2.31201171875 11.6447482638889  1.9482421875 11.2105034722222  1.5087890625 10.7213541666667  C 0.5029296875 9.59331597222222  0 8.25564236111111  0 6.70833333333333  C 0 5.72005208333333  0.21728515625 4.79915364583333  0.65185546875 3.94563802083333  C 1.08642578125 3.09212239583333  1.65771484375 2.38335503472222  2.36572265625 1.8193359375  C 3.07373046875 1.25531684027778  3.87451171875 0.811089409722219  4.76806640625 0.486653645833332  C 5.66162109375 0.162217881944443  6.572265625 0  7.5 0  C 8.427734375 0  9.33837890625 0.162217881944443  10.23193359375 0.486653645833332  C 11.12548828125 0.811089409722219  11.92626953125 1.25531684027778  12.63427734375 1.8193359375  C 13.34228515625 2.38335503472222  13.91357421875 3.09212239583333  14.34814453125 3.94563802083333  Z " fill-rule="nonzero" fill="#878ad2" stroke="none" transform="matrix(1 0 0 1 553 498 )" />
  </g>
</svg>