<?xml version="1.0" encoding="utf-8"?>
<svg version="1.1" xmlns:xlink="http://www.w3.org/1999/xlink" width="60px" height="55px" xmlns="http://www.w3.org/2000/svg">
  <g transform="matrix(1 0 0 1 -591 -313 )">
    <path d="M 56.9387755102041 10.9928385416667  C 57.8511404561825 11.3509114583333  58.5594237695078 11.8641493055556  59.0636254501801 12.5325520833333  C 60.0240096038415 13.8932291666667  60.2400960384154 15.4329427083333  59.7118847539016 17.1516927083333  L 49.8079231692677 49.5930989583333  C 49.3517406962785 51.1208767361111  48.4333733493397 52.4039713541667  47.0528211284514 53.4423828125  C 45.672268907563 54.4807942708333  44.2016806722689 55  42.641056422569 55  L 9.39975990396158 55  C 7.55102040816327 55  5.76830732292917 54.3614366319444  4.0516206482593 53.0843098958333  C 2.33493397358944 51.8071831597222  1.14045618247299 50.2376302083333  0.468187274909964 48.3756510416667  C -0.108043217286915 46.7762586805556  -0.132052821128451 45.2604166666667  0.396158463385354 43.828125  C 0.396158463385354 43.7326388888889  0.432172869147659 43.4103732638889  0.504201680672269 42.861328125  C 0.576230492196879 42.3122829861111  0.624249699879952 41.8706597222222  0.648259303721489 41.5364583333333  C 0.672268907563025 41.3454861111111  0.63625450180072 41.0888671875  0.540216086434574 40.7666015625  C 0.444177671068427 40.4443359375  0.408163265306122 40.2115885416667  0.432172869147659 40.068359375  C 0.480192076830732 39.8057725694444  0.576230492196879 39.5551215277778  0.720288115246098 39.31640625  C 0.864345738295318 39.0776909722222  1.062424969988 38.7972005208333  1.31452581032413 38.4749348958333  C 1.56662665066026 38.1526692708333  1.76470588235294 37.8721788194444  1.90876350540216 37.6334635416667  C 2.4609843937575 36.7263454861111  3.00120048019208 35.6342230902778  3.52941176470588 34.3570963541667  C 4.05762304921969 33.0799696180556  4.41776710684274 31.9878472222222  4.60984393757503 31.0807291666667  C 4.68187274909964 30.8420138888889  4.68787515006002 30.4839409722222  4.62785114045618 30.0065104166667  C 4.56782713085234 29.5290798611111  4.56182472989196 29.1948784722222  4.60984393757503 29.00390625  C 4.68187274909964 28.7413194444444  4.8859543817527 28.4071180555556  5.22208883553421 28.0013020833333  C 5.55822328931573 27.5954861111111  5.76230492196879 27.3209635416667  5.8343337334934 27.177734375  C 6.33853541416567 26.318359375  6.84273709483794 25.2202690972222  7.3469387755102 23.8834635416667  C 7.85114045618247 22.5466579861111  8.15126050420168 21.4724392361111  8.24729891956783 20.6608072916667  C 8.27130852340936 20.4459635416667  8.24129651860744 20.0640190972222  8.15726290516207 19.5149739583333  C 8.07322929171669 18.9659288194444  8.07923169267707 18.6317274305556  8.17527010804322 18.5123697916667  C 8.27130852340936 18.2020399305556  8.53541416566627 17.8379991319444  8.96758703481393 17.4202473958333  C 9.39975990396158 17.0024956597222  9.66386554621849 16.7339409722222  9.75990396158463 16.6145833333333  C 10.2160864345738 15.9939236111111  10.7262905162065 14.9853515625  11.2905162064826 13.5888671875  C 11.8547418967587 12.1923828125  12.1848739495798 11.0405815972222  12.280912364946 10.1334635416667  C 12.3049219687875 9.94249131944444  12.2689075630252 9.63812934027777  12.1728691476591 9.22037760416666  C 12.0768307322929 8.80262586805555  12.0528211284514 8.486328125  12.1008403361345 8.271484375  C 12.1488595438175 8.08051215277777  12.2569027611044 7.86566840277777  12.4249699879952 7.626953125  C 12.593037214886 7.38823784722222  12.8091236494598 7.11371527777777  13.0732292917167 6.80338541666666  C 13.3373349339736 6.49305555555555  13.5414165666267 6.24240451388889  13.6854741896759 6.05143229166666  C 13.8775510204082 5.76497395833334  14.0756302521008 5.40093315972222  14.2797118847539 4.95930989583334  C 14.483793517407 4.51768663194444  14.6638655462185 4.09993489583334  14.8199279711885 3.7060546875  C 14.9759903961585 3.31217447916666  15.1680672268908 2.88248697916666  15.3961584633854 2.4169921875  C 15.62424969988 1.95149739583334  15.8583433373349 1.56955295138889  16.0984393757503 1.27115885416666  C 16.3385354141657 0.972764756944437  16.656662665066 0.692274305555551  17.0528211284514 0.4296875  C 17.4489795918367 0.167100694444437  17.8811524609844 0.0298394097222215  18.3493397358944 0.0179036458333354  C 18.8175270108043 0.00596788194443698  19.3877551020408 0.0716145833333354  20.0600240096038 0.21484375  L 20.0240096038415 0.322265625  C 20.9363745498199 0.107421875  21.5486194477791 0  21.8607442977191 0  L 49.2677070828331 0  C 51.0444177671069 0  52.4129651860744 0.668402777777772  53.3733493397359 2.00520833333334  C 54.3337334933974 3.34201388888889  54.5498199279712 4.89366319444444  54.0216086434574 6.66015625  L 44.1536614645858 39.1015625  C 43.2893157262905 41.9422743055556  42.4309723889556 43.7744140625  41.578631452581 44.5979817708333  C 40.7262905162065 45.4215494791667  39.1836734693877 45.8333333333333  36.9507803121248 45  L 5.65426170468187 45  C 5.00600240096038 45.8333333333333  4.54981992797119 46.0123697916667  4.28571428571429 46.3704427083333  C 4.02160864345738 46.7523871527778  4.00960384153661 47.265625  4.24969987995198 47.91015625  C 4.82593037214886 49.5811631944444  6.5546218487395 50.4166666666667  9.43577430972389 50  L 42.6770708283313 50  C 43.3733493397359 50.4166666666667  44.0456182472989 50.2316623263889  44.6938775510204 49.8616536458333  C 45.3421368547419 49.4916449652778  45.7623049219688 48.9963107638889  45.9543817527011 48.3756510416667  L 56.7587034813926 13.0338541666667  C 56.9267707082833 12.5086805555556  56.9867947178872 11.8283420138889  56.9387755102041 10.9928385416667  Z M 21.500600240096 10.3125  L 20.7442977190876 12.6041666666667  C 20.6482593037215 12.9144965277778  20.672268907563 13.1830512152778  20.8163265306122 13.4098307291667  C 20.9603841536615 13.6366102430556  21.2004801920768 13.75  21.5366146458583 14  L 43.4333733493397 14  C 43.7454981992797 13.75  44.0516206482593 13.6366102430556  44.3517406962785 13.4098307291667  C 44.6518607442977 13.1830512152778  44.8499399759904 12.9144965277778  44.9459783913565 12.6041666666667  L 45.7022809123649 10.3125  C 45.7983193277311 10.0021701388889  45.7743097238896 9.73361545138889  45.6302521008403 9.5068359375  C 45.4861944777911 9.28005642361111  45.2460984393758 9.16666666666666  44.9099639855942 10  L 23.0132052821128 10  C 22.7010804321729 9.16666666666666  22.3949579831933 9.28005642361111  22.0948379351741 9.5068359375  C 21.7947178871549 9.73361545138889  21.5966386554622 10.0021701388889  21.500600240096 10.3125  Z M 18.5114045618247 19.4791666666667  L 17.7551020408163 21.7708333333333  C 17.6590636254502 22.0811631944444  17.6830732292917 22.3497178819444  17.8271308523409 22.5764973958333  C 17.9711884753902 22.8032769097222  18.2112845138055 22.9166666666667  18.547418967587 23  L 40.4441776710684 23  C 40.7563025210084 22.9166666666667  41.062424969988 22.8032769097222  41.3625450180072 22.5764973958333  C 41.6626650660264 22.3497178819444  41.8607442977191 22.0811631944444  41.9567827130852 21.7708333333333  L 42.7130852340936 19.4791666666667  C 42.8091236494598 19.1688368055556  42.7851140456182 18.9002821180556  42.641056422569 18.6735026041667  C 42.4969987995198 18.4467230902778  42.2569027611044 18.3333333333333  41.9207683073229 19  L 20.0240096038415 19  C 19.7118847539016 18.3333333333333  19.405762304922 18.4467230902778  19.1056422569028 18.6735026041667  C 18.8055222088836 18.9002821180556  18.6074429771909 19.1688368055556  18.5114045618247 19.4791666666667  Z " fill-rule="nonzero" fill="#585de0" stroke="none" transform="matrix(1 0 0 1 591 313 )" />
  </g>
</svg>