<?xml version="1.0" encoding="utf-8"?>
<svg version="1.1" xmlns:xlink="http://www.w3.org/1999/xlink" width="28px" height="60px" xmlns="http://www.w3.org/2000/svg">
  <g transform="matrix(1 0 0 1 -787 -490 )">
    <path d="M 27.16875 49.9005681818182  C 27.7229166666667 50.4403409090909  28 51.0795454545455  28 51.8181818181818  L 28 57.2727272727273  C 28 58.0113636363636  27.7229166666667 58.6505681818182  27.16875 59.1903409090909  C 26.6145833333333 59.7301136363636  25.9583333333333 60  25.2 60  L 2.8 60  C 2.04166666666667 60  1.38541666666667 59.7301136363636  0.83125 59.1903409090909  C 0.277083333333333 58.6505681818182  0 58.0113636363636  0 57.2727272727273  L 0 51.8181818181818  C 0 51.0795454545455  0.277083333333333 50.4403409090909  0.83125 49.9005681818182  C 1.38541666666667 49.3607954545455  2.04166666666667 49.0909090909091  2.8 49.0909090909091  L 6 49.0909090909091  L 6 32.7272727272727  L 2.8 32.7272727272727  C 2.04166666666667 32.7272727272727  1.38541666666667 32.4573863636364  0.83125 31.9176136363636  C 0.277083333333333 31.3778409090909  0 30.7386363636364  0 30  L 0 24.5454545454545  C 0 23.8068181818182  0.277083333333333 23.1676136363636  0.83125 22.6278409090909  C 1.38541666666667 22.0880681818182  2.04166666666667 21.8181818181818  2.8 22  L 19.6 22  C 20.3583333333333 21.8181818181818  21.0145833333333 22.0880681818182  21.56875 22.6278409090909  C 22.1229166666667 23.1676136363636  22.4 23.8068181818182  22 24.5454545454545  L 22 49.0909090909091  L 25.2 49.0909090909091  C 25.9583333333333 49.0909090909091  26.6145833333333 49.3607954545455  27.16875 49.9005681818182  Z M 21.56875 0.809659090909094  C 22.1229166666667 1.34943181818181  22.4 1.98863636363636  22.4 2.72727272727272  L 22.4 10.9090909090909  C 22.4 11.6477272727273  22.1229166666667 12.2869318181818  21.56875 12.8267045454545  C 21.0145833333333 13.3664772727273  20.3583333333333 13.6363636363636  19.6 14  L 8.4 14  C 7.64166666666667 13.6363636363636  6.98541666666667 13.3664772727273  6.43125 12.8267045454545  C 5.87708333333333 12.2869318181818  5.6 11.6477272727273  5.6 10.9090909090909  L 5.6 2.72727272727272  C 5.6 1.98863636363636  5.87708333333333 1.34943181818181  6.43125 0.809659090909094  C 6.98541666666667 0.269886363636358  7.64166666666667 0  8.4 0  L 19.6 0  C 20.3583333333333 0  21.0145833333333 0.269886363636358  21.56875 0.809659090909094  Z " fill-rule="nonzero" fill="#585de0" stroke="none" transform="matrix(1 0 0 1 787 490 )" />
  </g>
</svg>