<?xml version="1.0" encoding="utf-8"?>
<svg version="1.1" xmlns:xlink="http://www.w3.org/1999/xlink" width="60px" height="60px" xmlns="http://www.w3.org/2000/svg">
  <g transform="matrix(1 0 0 1 -591 -488 )">
    <path d="M 60 30  C 60 13.4274193548387  46.5725806451613 0  30 0  C 13.4274193548387 0  0 13.4274193548387  0 30  C 0 46.5725806451613  13.4274193548387 60  30 60  C 46.5725806451613 60  60 46.5725806451613  60 30  Z M 54.1935483870968 30  C 54.1935483870968 43.366935483871  43.366935483871 54.1935483870968  30 54.1935483870968  C 16.633064516129 54.1935483870968  5.80645161290323 43.366935483871  5.80645161290323 30  C 5.80645161290323 16.633064516129  16.633064516129 5.80645161290323  30 5.80645161290323  C 43.366935483871 5.80645161290323  54.1935483870968 16.633064516129  54.1935483870968 30  Z M 39.508064516129 41.25  C 39.0362903225806 41.8911290322581  38.1290322580645 42.0362903225806  37.4758064516129 41.5645161290322  L 27.2056451612903 34.1008064516129  C 26.8306451612903 33.8225806451613  26.6129032258065 33.3870967741935  27 32.9274193548387  L 27 13.0645161290322  C 26.6129032258065 12.2661290322581  27.2661290322581 11.6129032258065  28.0645161290322 11.6129032258065  L 31.9354838709678 11.6129032258065  C 32.7338709677419 11.6129032258065  33.3870967741935 12.2661290322581  33 13.0645161290322  L 33 30.2056451612903  L 41.4677419354839 36.0846774193548  C 42.1209677419355 36.5564516129032  42.2540322580645 37.4637096774194  41.7822580645161 38.116935483871  L 39.508064516129 41.25  Z " fill-rule="nonzero" fill="#585de0" stroke="none" transform="matrix(1 0 0 1 591 488 )" />
  </g>
</svg>