<?xml version="1.0" encoding="utf-8"?>
<svg version="1.1" xmlns:xlink="http://www.w3.org/1999/xlink" width="11px" height="15px" xmlns="http://www.w3.org/2000/svg">
  <g transform="matrix(1 0 0 1 -205 -14 )">
    <path d="M 3.15631353209255 7.14110006604091  C 3.15631353209255 8.47049369801034  4.17090406326588 9.48581250000001  5.49895463771446 9.48581250000001  C 6.82803979013477 9.48581250000001  7.84372958409926 8.47049369801034  7.84372958409926 7.14110006604091  L 7.84372958409926 2.45169673870278  C 7.84372958409926 1.12277761072392  6.82803979013477 0.10642353304857  5.49895463771441 0.10642353304857  C 4.1709256318934 0.10642353304857  3.15631353209255 1.12277761072392  3.15631353209255 2.45169673870278  L 3.15631353209255 7.14110006604091  Z M 4.56189388595283 7.21971582733813  L 4.56189388595283 2.37353391973922  C 4.56189388595283 1.82652349370504  4.95284059244796 1.43532109937051  5.4989330901501 1.43532109937051  C 6.0460817344516 1.43532109937051  6.43702844094673 1.82652349370504  6.43702844094673 2.37353391973922  L 6.43702844094673 7.21971582733813  C 6.43702844094673 7.76670467063849  6.0460817344516 8.15792864770683  5.4989330901501 8.15792864770683  C 4.95284059244796 8.15792864770683  4.56189388595283 7.76670469171537  4.56189388595283 7.21971582733813  Z M 10.9672295247396 7.1410784833071  L 9.63922204541973 7.1410784833071  C 9.63922204541973 9.48579091726619  7.6864714996936 11.1272535549685  5.4989330901501 11.1272535549685  C 3.31245082720591 11.1272535549685  1.35970028147972 9.48579091726619  1.35970028147972 7.1410784833071  L 0.0327489698223076 7.1410784833071  C 0.0327489698223076 9.79835598864656  2.1406021905637 11.9878211626012  4.71913042279414 12.3780314256407  L 4.71913042279414 14.9571676736736  L 6.28089116689648 14.9571676736736  L 6.28089116689648 12.3780314256407  C 8.85728555836397 11.9878211626012  10.9672295247396 9.79835598864656  10.9672295247396 7.1410784833071  Z " fill-rule="nonzero" fill="#999999" stroke="none" transform="matrix(1 0 0 1 205 14 )" />
  </g>
</svg>